<?xml version="1.0" encoding="UTF-8"?>
<svg xmlns="http://www.w3.org/2000/svg" xmlns:xlink="http://www.w3.org/1999/xlink" width="12pt" height="12pt" viewBox="0 0 12 12" version="1.1">
<g id="surface1">
<path style=" stroke:none;fill-rule:nonzero;fill:rgb(83.529412%,83.921569%,85.882353%);fill-opacity:1;" d="M 8.960938 12 L 0 11.980469 L 0 11.582031 L 8.964844 11.601562 Z M 8.960938 12 "/>
<path style=" stroke:none;fill-rule:nonzero;fill:rgb(92.156863%,94.117647%,95.294118%);fill-opacity:1;" d="M 7.035156 0.015625 L 0.0273438 0 L 0 11.582031 L 8.964844 11.601562 L 8.984375 1.972656 Z M 7.035156 0.015625 "/>
<path style=" stroke:none;fill-rule:nonzero;fill:rgb(83.529412%,83.921569%,85.882353%);fill-opacity:1;" d="M 7.03125 1.96875 L 8.984375 1.972656 L 7.035156 0.015625 Z M 7.03125 1.96875 "/>
<path style=" stroke:none;fill-rule:nonzero;fill:rgb(26.666667%,76.862745%,63.137255%);fill-opacity:1;" d="M 2.773438 1.148438 L 2.773438 1.367188 L 0.855469 1.363281 L 0.855469 1.144531 Z M 2.773438 1.148438 "/>
<path style=" stroke:none;fill-rule:nonzero;fill:rgb(15.294118%,63.529412%,85.882353%);fill-opacity:1;" d="M 8.089844 9.308594 L 8.089844 9.523438 L 6.171875 9.519531 L 6.171875 9.304688 Z M 8.089844 9.308594 "/>
<path style=" stroke:none;fill-rule:nonzero;fill:rgb(92.156863%,94.117647%,95.294118%);fill-opacity:1;" d="M 8.089844 10.011719 L 8.089844 10.226562 L 6.820312 10.222656 L 6.824219 10.007812 Z M 8.089844 10.011719 "/>
<path style=" stroke:none;fill-rule:nonzero;fill:rgb(89.803922%,38.823529%,32.54902%);fill-opacity:1;" d="M 6.089844 3.148438 L 6.089844 3.371094 L 2.910156 3.359375 L 2.910156 3.144531 Z M 6.089844 3.148438 "/>
<path style=" stroke:none;fill-rule:nonzero;fill:rgb(83.529412%,83.921569%,85.882353%);fill-opacity:1;" d="M 8.105469 4.128906 L 8.105469 4.347656 L 0.894531 4.335938 L 0.894531 4.117188 Z M 8.105469 4.128906 "/>
<path style=" stroke:none;fill-rule:nonzero;fill:rgb(83.529412%,83.921569%,85.882353%);fill-opacity:1;" d="M 8.101562 4.933594 L 8.101562 5.152344 L 0.890625 5.136719 L 0.890625 4.917969 Z M 8.101562 4.933594 "/>
<path style=" stroke:none;fill-rule:nonzero;fill:rgb(83.529412%,83.921569%,85.882353%);fill-opacity:1;" d="M 6.390625 5.734375 L 6.390625 5.949219 L 0.890625 5.9375 L 0.890625 5.722656 Z M 6.390625 5.734375 "/>
<path style=" stroke:none;fill-rule:nonzero;fill:rgb(83.529412%,83.921569%,85.882353%);fill-opacity:1;" d="M 8.097656 6.539062 L 8.097656 6.753906 L 0.886719 6.742188 L 0.886719 6.523438 Z M 8.097656 6.539062 "/>
<path style=" stroke:none;fill-rule:nonzero;fill:rgb(83.529412%,83.921569%,85.882353%);fill-opacity:1;" d="M 8.09375 7.339844 L 8.09375 7.558594 L 0.886719 7.542969 L 0.886719 7.328125 Z M 8.09375 7.339844 "/>
<path style=" stroke:none;fill-rule:nonzero;fill:rgb(83.529412%,83.921569%,85.882353%);fill-opacity:1;" d="M 5.011719 8.136719 L 5.011719 8.355469 L 0.886719 8.347656 L 0.886719 8.128906 Z M 5.011719 8.136719 "/>
<path style=" stroke:none;fill-rule:nonzero;fill:rgb(83.529412%,83.921569%,85.882353%);fill-opacity:1;" d="M 3.683594 1.964844 L 3.683594 2.183594 L 0.851562 2.175781 L 0.851562 1.957031 Z M 3.683594 1.964844 "/>
<path style=" stroke:none;fill-rule:nonzero;fill:rgb(39.215686%,47.45098%,54.117647%);fill-opacity:1;" d="M 7.476562 7.847656 L 11.984375 3.175781 C 12.003906 3.15625 12.003906 3.125 11.984375 3.109375 L 11.480469 2.597656 C 11.460938 2.582031 11.433594 2.582031 11.410156 2.597656 L 6.722656 7.089844 L 5.929688 8.058594 L 6.5 8.636719 Z M 7.476562 7.847656 "/>
<path style=" stroke:none;fill-rule:nonzero;fill:rgb(98.823529%,83.137255%,38.431373%);fill-opacity:1;" d="M 5.863281 8.277344 L 5.386719 8.546875 L 5.105469 9.453125 L 6.019531 9.179688 L 6.285156 8.699219 Z M 5.863281 8.277344 "/>
<path style=" stroke:none;fill-rule:nonzero;fill:rgb(96.470588%,76.470588%,34.509804%);fill-opacity:1;" d="M 5.625 8.757812 C 5.574219 8.808594 5.574219 8.886719 5.621094 8.9375 C 5.675781 8.992188 5.757812 8.992188 5.808594 8.941406 C 5.855469 8.886719 5.855469 8.808594 5.808594 8.757812 C 5.757812 8.707031 5.675781 8.707031 5.625 8.757812 Z M 5.625 8.757812 "/>
<path style=" stroke:none;fill-rule:nonzero;fill:rgb(39.215686%,47.45098%,54.117647%);fill-opacity:1;" d="M 6.519531 8.652344 L 5.910156 8.042969 C 5.871094 8 5.808594 8 5.769531 8.042969 C 5.730469 8.082031 5.730469 8.140625 5.769531 8.183594 L 6.378906 8.792969 C 6.417969 8.835938 6.484375 8.835938 6.519531 8.796875 C 6.558594 8.757812 6.558594 8.695312 6.519531 8.652344 Z M 6.519531 8.652344 "/>
<path style=" stroke:none;fill-rule:nonzero;fill:rgb(98.823529%,83.137255%,38.431373%);fill-opacity:1;" d="M 9.777344 5.464844 L 9.117188 4.800781 L 9.003906 4.902344 L 9.671875 5.574219 Z M 9.777344 5.464844 "/>
<path style=" stroke:none;fill-rule:nonzero;fill:rgb(98.823529%,83.137255%,38.431373%);fill-opacity:1;" d="M 11.867188 3.300781 L 11.289062 2.714844 L 11.179688 2.824219 L 11.371094 3.019531 L 9.789062 4.589844 C 9.769531 4.609375 9.769531 4.636719 9.789062 4.65625 L 9.925781 4.789062 C 9.941406 4.808594 9.96875 4.808594 9.988281 4.789062 L 11.570312 3.214844 L 11.761719 3.40625 Z M 11.867188 3.300781 "/>
<path style=" stroke:none;fill-rule:nonzero;fill:rgb(96.470588%,76.470588%,34.509804%);fill-opacity:1;" d="M 11.378906 3.289062 L 10.074219 4.589844 L 9.988281 4.503906 L 11.296875 3.207031 Z M 11.378906 3.289062 "/>
</g>
</svg>
