<?xml version="1.0" encoding="iso-8859-1"?>
<!-- Generator: Adobe Illustrator 19.0.0, SVG Export Plug-In . SVG Version: 6.00 Build 0)  -->
<svg version="1.1" id="Layer_1" xmlns="http://www.w3.org/2000/svg" xmlns:xlink="http://www.w3.org/1999/xlink" x="0px" y="0px"
	 viewBox="0 0 491.536 491.536" style="enable-background:new 0 0 491.536 491.536;" xml:space="preserve">
<rect x="0.019" y="474.883" transform="matrix(-1 -0.002 0.002 -1 366.2036 966.418)" style="fill:#D5D6DB;" width="367.156" height="16.277"/>
<polygon style="fill:#EBF0F3;" points="288.165,0.589 1.028,0 0.055,474.491 367.187,475.244 367.997,80.749 "/>
<polygon style="fill:#D5D6DB;" points="288.001,80.585 367.997,80.749 288.165,0.589 "/>
<rect x="69.848" y="12.148" transform="matrix(-0.002 1 -1 -0.002 125.9192 -22.7472)" style="fill:#44C4A1;" width="8.924" height="78.618"/>
<rect x="287.684" y="346.314" transform="matrix(-0.002 1 -1 -0.002 678.3676 94.2677)" style="fill:#27A2DB;" width="8.924" height="78.618"/>
<rect x="300.955" y="388.448" transform="matrix(-0.0021 1 -1 -0.0021 720.4703 109.862)" style="fill:#EBF0F3;" width="8.924" height="51.953"/>
<rect x="179.858" y="68.31" transform="matrix(-0.0021 1 -1 -0.0021 318.0774 -50.6678)" style="fill:#E56353;" width="8.924" height="130.135"/>
<g>
	
		<rect x="179.795" y="25.725" transform="matrix(-0.002 1 -1 -0.002 358.0078 -10.5275)" style="fill:#D5D6DB;" width="8.924" height="295.297"/>
	
		<rect x="179.708" y="58.561" transform="matrix(-0.002 1 -1 -0.002 390.7557 22.4623)" style="fill:#D5D6DB;" width="8.924" height="295.297"/>
	
		<rect x="144.607" y="126.429" transform="matrix(-0.002 1 -1 -0.002 388.4184 90.4653)" style="fill:#D5D6DB;" width="8.924" height="225.229"/>
	
		<rect x="179.554" y="124.334" transform="matrix(-0.002 1 -1 -0.002 456.3745 88.5242)" style="fill:#D5D6DB;" width="8.924" height="295.297"/>
	
		<rect x="179.502" y="157.169" transform="matrix(-0.002 1 -1 -0.002 489.1584 121.4782)" style="fill:#D5D6DB;" width="8.924" height="295.297"/>
	
		<rect x="116.297" y="253.034" transform="matrix(-0.002 1 -1 -0.002 458.5714 217.4986)" style="fill:#D5D6DB;" width="8.924" height="169.063"/>
	
		<rect x="88.432" y="26.845" transform="matrix(-0.0021 1 -1 -0.0021 177.8912 -7.9124)" style="fill:#D5D6DB;" width="8.924" height="115.922"/>
</g>
<path style="fill:#64798A;" d="M306.25,321.363l184.729-191.295c0.746-0.773,0.737-2-0.02-2.761l-20.728-20.811
	c-0.758-0.761-1.985-0.776-2.759-0.034L275.419,290.405l0,0l-32.528,39.771l23.455,23.551L306.25,321.363L306.25,321.363z"/>
<polygon style="fill:#FCD462;" points="240.228,339.093 220.52,349.996 209.091,387.292 246.434,376.016 257.417,356.354 "/>
<ellipse transform="matrix(-0.7056 -0.7086 0.7086 -0.7056 142.4305 784.0452)" style="fill:#F6C358;" cx="234.076" cy="362.437" rx="5.294" ry="5.299"/>
<path style="fill:#64798A;" d="M267.147,354.533l-25.059-25.163c-1.594-1.6-4.183-1.605-5.784-0.012l0,0
	c-1.601,1.594-1.606,4.183-0.012,5.783l25.059,25.163c1.594,1.6,4.183,1.605,5.783,0.012l0,0
	C268.737,358.723,268.742,356.133,267.147,354.533z"/>
<g>
	<polygon style="fill:#FCD462;" points="400.511,223.751 373.416,196.545 368.863,200.907 396.131,228.286 	"/>
	<path style="fill:#FCD462;" d="M486.132,135.088L462.43,111.29l-4.553,4.361l7.869,7.902l-64.786,64.521
		c-0.71,0.708-0.713,1.856-0.006,2.565l5.574,5.597c0.707,0.71,1.856,0.713,2.566,0.005l64.786-64.521l7.869,7.902L486.132,135.088z
		"/>
</g>
<rect x="399.936" y="157.275" transform="matrix(-0.7086 0.7056 -0.7056 -0.7086 860.4624 -36.0139)" style="fill:#F6C358;" width="75.464" height="4.792"/>
<g>
</g>
<g>
</g>
<g>
</g>
<g>
</g>
<g>
</g>
<g>
</g>
<g>
</g>
<g>
</g>
<g>
</g>
<g>
</g>
<g>
</g>
<g>
</g>
<g>
</g>
<g>
</g>
<g>
</g>
</svg>
