<?xml version="1.0" encoding="UTF-8"?>
<svg xmlns="http://www.w3.org/2000/svg" xmlns:xlink="http://www.w3.org/1999/xlink" width="16pt" height="16pt" viewBox="0 0 16 16" version="1.1">
<g id="surface1">
<path style=" stroke:none;fill-rule:nonzero;fill:rgb(83.529412%,83.921569%,85.882353%);fill-opacity:1;" d="M 11.949219 16 L 0 15.976562 L 0 15.445312 L 11.953125 15.46875 Z M 11.949219 16 "/>
<path style=" stroke:none;fill-rule:nonzero;fill:rgb(92.156863%,94.117647%,95.294118%);fill-opacity:1;" d="M 9.378906 0.0195312 L 0.0351562 0 L 0 15.445312 L 11.953125 15.46875 L 11.980469 2.628906 Z M 9.378906 0.0195312 "/>
<path style=" stroke:none;fill-rule:nonzero;fill:rgb(83.529412%,83.921569%,85.882353%);fill-opacity:1;" d="M 9.375 2.625 L 11.980469 2.628906 L 9.378906 0.0195312 Z M 9.375 2.625 "/>
<path style=" stroke:none;fill-rule:nonzero;fill:rgb(26.666667%,76.862745%,63.137255%);fill-opacity:1;" d="M 3.699219 1.53125 L 3.699219 1.824219 L 1.140625 1.816406 L 1.140625 1.527344 Z M 3.699219 1.53125 "/>
<path style=" stroke:none;fill-rule:nonzero;fill:rgb(15.294118%,63.529412%,85.882353%);fill-opacity:1;" d="M 10.789062 12.410156 L 10.789062 12.699219 L 8.230469 12.695312 L 8.230469 12.40625 Z M 10.789062 12.410156 "/>
<path style=" stroke:none;fill-rule:nonzero;fill:rgb(92.156863%,94.117647%,95.294118%);fill-opacity:1;" d="M 10.785156 13.347656 L 10.785156 13.636719 L 9.09375 13.632812 L 9.097656 13.34375 Z M 10.785156 13.347656 "/>
<path style=" stroke:none;fill-rule:nonzero;fill:rgb(89.803922%,38.823529%,32.54902%);fill-opacity:1;" d="M 8.117188 4.199219 L 8.117188 4.492188 L 3.882812 4.480469 L 3.882812 4.191406 Z M 8.117188 4.199219 "/>
<path style=" stroke:none;fill-rule:nonzero;fill:rgb(83.529412%,83.921569%,85.882353%);fill-opacity:1;" d="M 10.804688 5.507812 L 10.804688 5.796875 L 1.191406 5.78125 L 1.191406 5.488281 Z M 10.804688 5.507812 "/>
<path style=" stroke:none;fill-rule:nonzero;fill:rgb(83.529412%,83.921569%,85.882353%);fill-opacity:1;" d="M 10.800781 6.578125 L 10.800781 6.867188 L 1.1875 6.847656 L 1.1875 6.558594 Z M 10.800781 6.578125 "/>
<path style=" stroke:none;fill-rule:nonzero;fill:rgb(83.529412%,83.921569%,85.882353%);fill-opacity:1;" d="M 8.519531 7.644531 L 8.519531 7.933594 L 1.1875 7.917969 L 1.1875 7.628906 Z M 8.519531 7.644531 "/>
<path style=" stroke:none;fill-rule:nonzero;fill:rgb(83.529412%,83.921569%,85.882353%);fill-opacity:1;" d="M 10.796875 8.71875 L 10.796875 9.007812 L 1.183594 8.988281 L 1.183594 8.699219 Z M 10.796875 8.71875 "/>
<path style=" stroke:none;fill-rule:nonzero;fill:rgb(83.529412%,83.921569%,85.882353%);fill-opacity:1;" d="M 10.792969 9.785156 L 10.792969 10.078125 L 1.183594 10.058594 L 1.183594 9.769531 Z M 10.792969 9.785156 "/>
<path style=" stroke:none;fill-rule:nonzero;fill:rgb(83.529412%,83.921569%,85.882353%);fill-opacity:1;" d="M 6.683594 10.847656 L 6.683594 11.140625 L 1.179688 11.128906 L 1.179688 10.839844 Z M 6.683594 10.847656 "/>
<path style=" stroke:none;fill-rule:nonzero;fill:rgb(83.529412%,83.921569%,85.882353%);fill-opacity:1;" d="M 4.910156 2.621094 L 4.910156 2.910156 L 1.136719 2.902344 L 1.136719 2.609375 Z M 4.910156 2.621094 "/>
<path style=" stroke:none;fill-rule:nonzero;fill:rgb(39.215686%,47.45098%,54.117647%);fill-opacity:1;" d="M 9.96875 10.460938 L 15.980469 4.234375 C 16.007812 4.207031 16.003906 4.167969 15.980469 4.144531 L 15.304688 3.464844 C 15.28125 3.441406 15.242188 3.441406 15.214844 3.464844 L 8.964844 9.453125 L 7.90625 10.746094 L 8.667969 11.515625 Z M 9.96875 10.460938 "/>
<path style=" stroke:none;fill-rule:nonzero;fill:rgb(98.823529%,83.137255%,38.431373%);fill-opacity:1;" d="M 7.820312 11.039062 L 7.179688 11.394531 L 6.804688 12.605469 L 8.023438 12.238281 L 8.378906 11.601562 Z M 7.820312 11.039062 "/>
<path style=" stroke:none;fill-rule:nonzero;fill:rgb(96.470588%,76.470588%,34.509804%);fill-opacity:1;" d="M 7.5 11.675781 C 7.429688 11.742188 7.429688 11.851562 7.496094 11.917969 C 7.566406 11.988281 7.675781 11.988281 7.742188 11.921875 C 7.808594 11.851562 7.808594 11.742188 7.742188 11.675781 C 7.675781 11.609375 7.566406 11.609375 7.5 11.675781 Z M 7.5 11.675781 "/>
<path style=" stroke:none;fill-rule:nonzero;fill:rgb(39.215686%,47.45098%,54.117647%);fill-opacity:1;" d="M 8.695312 11.539062 L 7.878906 10.722656 C 7.828125 10.667969 7.742188 10.667969 7.691406 10.722656 C 7.640625 10.773438 7.640625 10.855469 7.691406 10.910156 L 8.507812 11.726562 C 8.558594 11.78125 8.644531 11.78125 8.695312 11.730469 C 8.746094 11.675781 8.746094 11.59375 8.695312 11.539062 Z M 8.695312 11.539062 "/>
<path style=" stroke:none;fill-rule:nonzero;fill:rgb(98.823529%,83.137255%,38.431373%);fill-opacity:1;" d="M 13.035156 7.285156 L 12.15625 6.398438 L 12.007812 6.539062 L 12.894531 7.429688 Z M 13.035156 7.285156 "/>
<path style=" stroke:none;fill-rule:nonzero;fill:rgb(98.823529%,83.137255%,38.431373%);fill-opacity:1;" d="M 15.824219 4.398438 L 15.050781 3.621094 L 14.90625 3.765625 L 15.160156 4.023438 L 13.050781 6.121094 C 13.027344 6.144531 13.027344 6.183594 13.050781 6.207031 L 13.234375 6.386719 C 13.257812 6.410156 13.292969 6.410156 13.316406 6.386719 L 15.425781 4.289062 L 15.679688 4.542969 Z M 15.824219 4.398438 "/>
<path style=" stroke:none;fill-rule:nonzero;fill:rgb(96.470588%,76.470588%,34.509804%);fill-opacity:1;" d="M 15.171875 4.386719 L 13.429688 6.117188 L 13.320312 6.007812 L 15.0625 4.273438 Z M 15.171875 4.386719 "/>
</g>
</svg>
