<?xml version="1.0" encoding="UTF-8"?>
<svg xmlns="http://www.w3.org/2000/svg" xmlns:xlink="http://www.w3.org/1999/xlink" width="16pt" height="16pt" viewBox="0 0 16 16" version="1.1">
<g id="surface1">
<path style=" stroke:none;fill-rule:nonzero;fill:rgb(94.509804%,94.509804%,94.509804%);fill-opacity:1;" d="M 8 7.332031 C 6.394531 7.332031 4.667969 6.914062 4.667969 6 C 4.667969 5.085938 6.394531 4.667969 8 4.667969 C 9.605469 4.667969 11.332031 5.085938 11.332031 6 C 11.332031 6.914062 9.605469 7.332031 8 7.332031 Z M 8 5.332031 C 6.25 5.332031 5.332031 5.828125 5.332031 6 C 5.332031 6.171875 6.25 6.667969 8 6.667969 C 9.75 6.667969 10.667969 6.171875 10.667969 6 C 10.667969 5.828125 9.75 5.332031 8 5.332031 Z M 8 5.332031 "/>
<path style=" stroke:none;fill-rule:nonzero;fill:rgb(94.509804%,94.509804%,94.509804%);fill-opacity:1;" d="M 8 11.332031 C 6.394531 11.332031 4.667969 10.914062 4.667969 10 L 4.667969 6 C 4.667969 5.816406 4.816406 5.667969 5 5.667969 C 5.183594 5.667969 5.332031 5.816406 5.332031 6 L 5.332031 10 C 5.332031 10.171875 6.25 10.667969 8 10.667969 C 9.75 10.667969 10.667969 10.171875 10.667969 10 L 10.667969 6 C 10.667969 5.816406 10.816406 5.667969 11 5.667969 C 11.183594 5.667969 11.332031 5.816406 11.332031 6 L 11.332031 10 C 11.332031 10.914062 9.605469 11.332031 8 11.332031 Z M 8 11.332031 "/>
<path style=" stroke:none;fill-rule:nonzero;fill:rgb(94.509804%,94.509804%,94.509804%);fill-opacity:1;" d="M 8 9.332031 C 6.394531 9.332031 4.667969 8.914062 4.667969 8 C 4.667969 7.816406 4.816406 7.667969 5 7.667969 C 5.183594 7.667969 5.332031 7.816406 5.332031 8 C 5.332031 8.171875 6.25 8.667969 8 8.667969 C 9.75 8.667969 10.667969 8.171875 10.667969 8 C 10.667969 7.816406 10.816406 7.667969 11 7.667969 C 11.183594 7.667969 11.332031 7.816406 11.332031 8 C 11.332031 8.914062 9.605469 9.332031 8 9.332031 Z M 8 9.332031 "/>
<path style=" stroke:none;fill-rule:nonzero;fill:rgb(94.509804%,94.509804%,94.509804%);fill-opacity:1;" d="M 0.511719 10 C 0.359375 10 0.222656 9.894531 0.1875 9.738281 C 0.0625 9.183594 0 8.601562 0 8 C 0 3.589844 3.589844 0 8 0 C 10.535156 0 12.9375 1.21875 14.433594 3.261719 C 14.542969 3.410156 14.511719 3.621094 14.363281 3.730469 C 14.214844 3.839844 14.007812 3.804688 13.898438 3.65625 C 12.527344 1.785156 10.320312 0.667969 8 0.667969 C 3.957031 0.667969 0.667969 3.957031 0.667969 8 C 0.667969 8.550781 0.726562 9.085938 0.839844 9.59375 C 0.878906 9.773438 0.765625 9.953125 0.585938 9.992188 C 0.5625 9.996094 0.539062 10 0.511719 10 Z M 0.511719 10 "/>
<path style=" stroke:none;fill-rule:nonzero;fill:rgb(94.509804%,94.509804%,94.509804%);fill-opacity:1;" d="M 8 16 C 5.449219 16 3.03125 14.765625 1.535156 12.695312 C 1.429688 12.546875 1.460938 12.335938 1.613281 12.230469 C 1.761719 12.121094 1.96875 12.15625 2.078125 12.304688 C 3.445312 14.203125 5.660156 15.332031 8 15.332031 C 12.042969 15.332031 15.332031 12.042969 15.332031 8 C 15.332031 7.441406 15.273438 6.90625 15.15625 6.410156 C 15.113281 6.230469 15.222656 6.050781 15.402344 6.007812 C 15.585938 5.964844 15.761719 6.078125 15.804688 6.257812 C 15.933594 6.800781 16 7.390625 16 8 C 16 12.410156 12.410156 16 8 16 Z M 8 16 "/>
<path style=" stroke:none;fill-rule:nonzero;fill:rgb(94.509804%,94.509804%,94.509804%);fill-opacity:1;" d="M 1.699219 16 C 1.515625 16 1.367188 15.851562 1.367188 15.671875 L 1.332031 12.335938 C 1.332031 12.246094 1.367188 12.160156 1.429688 12.097656 C 1.492188 12.035156 1.578125 12 1.667969 12 L 5 12 C 5.183594 12 5.332031 12.148438 5.332031 12.332031 C 5.332031 12.515625 5.183594 12.667969 5 12.667969 L 2.003906 12.667969 L 2.035156 15.664062 C 2.035156 15.847656 1.886719 15.996094 1.703125 16 C 1.703125 16 1.703125 16 1.699219 16 Z M 1.699219 16 "/>
<path style=" stroke:none;fill-rule:nonzero;fill:rgb(94.509804%,94.509804%,94.509804%);fill-opacity:1;" d="M 14.332031 4 L 11 4 C 10.816406 4 10.667969 3.851562 10.667969 3.667969 C 10.667969 3.484375 10.816406 3.332031 11 3.332031 L 14 3.332031 L 14 0.332031 C 14 0.148438 14.148438 0 14.332031 0 C 14.515625 0 14.667969 0.148438 14.667969 0.332031 L 14.667969 3.667969 C 14.667969 3.851562 14.515625 4 14.332031 4 Z M 14.332031 4 "/>
</g>
</svg>
