<?xml version="1.0" encoding="UTF-8"?>
<svg xmlns="http://www.w3.org/2000/svg" xmlns:xlink="http://www.w3.org/1999/xlink" width="16pt" height="16pt" viewBox="0 0 16 16" version="1.1">
<g id="surface1">
<path style=" stroke:none;fill-rule:nonzero;fill:rgb(100%,97.647059%,97.647059%);fill-opacity:1;" d="M 14.796875 8.636719 C 14.308594 8.414062 13.675781 8.28125 13 8.253906 L 13 5.457031 C 13.328125 5.339844 13.535156 5.011719 13.496094 4.664062 C 13.457031 4.316406 13.183594 4.042969 12.835938 4.003906 C 12.488281 3.964844 12.160156 4.171875 12.042969 4.5 L 6.25 4.5 L 6.25 1.75 C 6.25 1.3125 5.910156 0.917969 5.296875 0.636719 C 4.746094 0.386719 4.019531 0.25 3.25 0.25 C 2.480469 0.25 1.753906 0.386719 1.203125 0.636719 C 0.589844 0.917969 0.25 1.3125 0.25 1.75 L 0.25 6.25 C 0.25 6.6875 0.589844 7.082031 1.203125 7.363281 C 1.691406 7.585938 2.324219 7.71875 3 7.746094 L 3 10.542969 C 2.671875 10.660156 2.464844 10.988281 2.503906 11.335938 C 2.542969 11.683594 2.816406 11.957031 3.164062 11.996094 C 3.511719 12.035156 3.839844 11.828125 3.957031 11.5 L 9.75 11.5 L 9.75 14.25 C 9.75 14.6875 10.089844 15.082031 10.703125 15.363281 C 11.253906 15.613281 11.980469 15.75 12.75 15.75 C 13.519531 15.75 14.246094 15.613281 14.796875 15.363281 C 15.410156 15.082031 15.75 14.6875 15.75 14.25 L 15.75 9.75 C 15.75 9.3125 15.410156 8.917969 14.796875 8.636719 Z M 12.75 4.5 C 12.886719 4.5 13 4.613281 13 4.75 C 13 4.886719 12.886719 5 12.75 5 C 12.613281 5 12.5 4.886719 12.5 4.75 C 12.5 4.613281 12.613281 4.5 12.75 4.5 Z M 1.410156 1.09375 C 1.898438 0.871094 2.550781 0.75 3.25 0.75 C 3.949219 0.75 4.601562 0.871094 5.089844 1.09375 C 5.503906 1.28125 5.75 1.527344 5.75 1.75 C 5.75 1.972656 5.503906 2.21875 5.089844 2.40625 C 4.601562 2.628906 3.949219 2.75 3.25 2.75 C 2.550781 2.75 1.898438 2.628906 1.410156 2.40625 C 0.996094 2.21875 0.75 1.972656 0.75 1.75 C 0.75 1.527344 0.996094 1.28125 1.410156 1.09375 Z M 0.75 2.601562 C 0.890625 2.703125 1.042969 2.789062 1.203125 2.863281 C 1.753906 3.113281 2.480469 3.25 3.25 3.25 C 4.019531 3.25 4.746094 3.113281 5.296875 2.863281 C 5.457031 2.789062 5.609375 2.703125 5.75 2.601562 L 5.75 3.25 C 5.75 3.472656 5.503906 3.71875 5.089844 3.90625 C 4.601562 4.128906 3.949219 4.25 3.25 4.25 C 2.550781 4.25 1.898438 4.128906 1.410156 3.90625 C 0.996094 3.71875 0.75 3.472656 0.75 3.25 Z M 0.75 4.101562 C 0.890625 4.203125 1.042969 4.289062 1.203125 4.363281 C 1.753906 4.613281 2.480469 4.75 3.25 4.75 C 4.019531 4.75 4.746094 4.613281 5.296875 4.363281 C 5.457031 4.289062 5.609375 4.203125 5.75 4.101562 L 5.75 4.75 C 5.75 4.972656 5.503906 5.21875 5.089844 5.40625 C 4.601562 5.628906 3.949219 5.75 3.25 5.75 C 2.550781 5.75 1.898438 5.628906 1.410156 5.40625 C 0.996094 5.21875 0.75 4.972656 0.75 4.75 Z M 1.410156 6.90625 C 0.996094 6.71875 0.75 6.472656 0.75 6.25 L 0.75 5.601562 C 0.890625 5.703125 1.042969 5.789062 1.203125 5.863281 C 1.753906 6.113281 2.480469 6.25 3.25 6.25 C 4.019531 6.25 4.746094 6.113281 5.296875 5.863281 C 5.457031 5.789062 5.609375 5.703125 5.75 5.601562 L 5.75 6.25 C 5.75 6.472656 5.503906 6.71875 5.089844 6.90625 C 4.601562 7.128906 3.949219 7.25 3.25 7.25 C 2.550781 7.25 1.898438 7.128906 1.410156 6.90625 Z M 3.25 11.5 C 3.113281 11.5 3 11.386719 3 11.25 C 3 11.113281 3.113281 11 3.25 11 C 3.386719 11 3.5 11.113281 3.5 11.25 C 3.5 11.386719 3.386719 11.5 3.25 11.5 Z M 9.75 9.75 L 9.75 11 L 3.957031 11 C 3.882812 10.785156 3.714844 10.617188 3.5 10.542969 L 3.5 7.746094 C 4.175781 7.71875 4.808594 7.585938 5.296875 7.363281 C 5.910156 7.082031 6.25 6.6875 6.25 6.25 L 6.25 5 L 12.042969 5 C 12.117188 5.214844 12.285156 5.382812 12.5 5.457031 L 12.5 8.253906 C 11.824219 8.28125 11.191406 8.414062 10.703125 8.636719 C 10.089844 8.917969 9.75 9.3125 9.75 9.75 Z M 15.25 14.25 C 15.25 14.472656 15.003906 14.71875 14.589844 14.90625 C 14.101562 15.128906 13.449219 15.25 12.75 15.25 C 12.050781 15.25 11.398438 15.128906 10.910156 14.90625 C 10.496094 14.71875 10.25 14.472656 10.25 14.25 L 10.25 13.601562 C 10.390625 13.703125 10.542969 13.789062 10.703125 13.863281 C 11.253906 14.113281 11.980469 14.25 12.75 14.25 C 13.519531 14.25 14.246094 14.113281 14.796875 13.863281 C 14.957031 13.789062 15.109375 13.703125 15.25 13.601562 Z M 15.25 12.75 C 15.25 12.972656 15.003906 13.21875 14.589844 13.40625 C 14.101562 13.628906 13.449219 13.75 12.75 13.75 C 12.050781 13.75 11.398438 13.628906 10.910156 13.40625 C 10.496094 13.21875 10.25 12.972656 10.25 12.75 L 10.25 12.101562 C 10.390625 12.203125 10.542969 12.289062 10.703125 12.363281 C 11.253906 12.613281 11.980469 12.75 12.75 12.75 C 13.519531 12.75 14.246094 12.613281 14.796875 12.363281 C 14.957031 12.289062 15.109375 12.203125 15.25 12.101562 Z M 15.25 11.25 C 15.25 11.472656 15.003906 11.71875 14.589844 11.90625 C 14.101562 12.128906 13.449219 12.25 12.75 12.25 C 12.050781 12.25 11.398438 12.128906 10.910156 11.90625 C 10.496094 11.71875 10.25 11.472656 10.25 11.25 L 10.25 10.601562 C 10.390625 10.703125 10.542969 10.789062 10.703125 10.863281 C 11.253906 11.113281 11.980469 11.25 12.75 11.25 C 13.519531 11.25 14.246094 11.113281 14.796875 10.863281 C 14.957031 10.789062 15.109375 10.703125 15.25 10.601562 Z M 14.589844 10.40625 C 14.101562 10.628906 13.449219 10.75 12.75 10.75 C 12.050781 10.75 11.398438 10.628906 10.910156 10.40625 C 10.496094 10.21875 10.25 9.972656 10.25 9.75 C 10.25 9.527344 10.496094 9.28125 10.910156 9.09375 C 11.398438 8.871094 12.050781 8.75 12.75 8.75 C 13.449219 8.75 14.101562 8.871094 14.589844 9.09375 C 15.003906 9.28125 15.25 9.527344 15.25 9.75 C 15.25 9.972656 15.003906 10.21875 14.589844 10.40625 Z M 14.589844 10.40625 "/>
</g>
</svg>
