<?xml version="1.0"?>
<svg xmlns="http://www.w3.org/2000/svg" xmlns:xlink="http://www.w3.org/1999/xlink" xmlns:svgjs="http://svgjs.com/svgjs" version="1.1" width="512" height="512" x="0" y="0" viewBox="0 0 512 512" style="enable-background:new 0 0 512 512" xml:space="preserve" class=""><g><path xmlns="http://www.w3.org/2000/svg" d="M473.54,276.43c-15.72-7.14-35.91-11.41-57.54-12.26V174.62A24,24,0,1,0,385.38,144H200V56c0-14.01-10.82-26.64-30.46-35.57C151.9,12.42,128.62,8,104,8S56.1,12.42,38.46,20.43C18.82,29.36,8,41.99,8,56V200c0,14.01,10.82,26.64,30.46,35.57,15.72,7.14,35.91,11.41,57.54,12.26v89.55A24,24,0,1,0,126.62,368H312v88c0,14.01,10.82,26.64,30.46,35.57C360.1,499.58,383.38,504,408,504s47.9-4.42,65.54-12.43C493.18,482.64,504,470.01,504,456V312C504,297.99,493.18,285.36,473.54,276.43ZM408,144a8,8,0,1,1-8,8A8.011,8.011,0,0,1,408,144ZM45.08,35C60.69,27.91,81.61,24,104,24s43.31,3.91,58.92,11C176.12,41,184,48.85,184,56s-7.88,15-21.08,21C147.31,84.09,126.39,88,104,88S60.69,84.09,45.08,77C31.88,71,24,63.15,24,56S31.88,41,45.08,35ZM24,83.19a78.933,78.933,0,0,0,14.46,8.38C56.1,99.58,79.38,104,104,104s47.9-4.42,65.54-12.43A78.933,78.933,0,0,0,184,83.19V104c0,7.15-7.88,15-21.08,21-15.61,7.09-36.53,11-58.92,11s-43.31-3.91-58.92-11C31.88,119,24,111.15,24,104Zm0,48a78.933,78.933,0,0,0,14.46,8.38C56.1,147.58,79.38,152,104,152s47.9-4.42,65.54-12.43A78.933,78.933,0,0,0,184,131.19V152c0,7.15-7.88,15-21.08,21-15.61,7.09-36.53,11-58.92,11s-43.31-3.91-58.92-11C31.88,167,24,159.15,24,152ZM45.09,221C31.88,215,24,207.15,24,200V179.19a78.933,78.933,0,0,0,14.46,8.38C56.1,195.58,79.38,200,104,200s47.9-4.42,65.54-12.43A78.933,78.933,0,0,0,184,179.19V200c0,7.15-7.88,15-21.09,21-15.6,7.09-36.52,11-58.91,11S60.69,228.09,45.09,221ZM104,368a8,8,0,1,1,8-8A8.011,8.011,0,0,1,104,368Zm208-56v40H126.62A24.067,24.067,0,0,0,112,337.38V247.83c21.63-.85,41.82-5.12,57.54-12.26C189.18,226.64,200,214.01,200,200V160H385.38A24.067,24.067,0,0,0,400,174.62v89.55c-21.63.85-41.82,5.12-57.54,12.26C322.82,285.36,312,297.99,312,312ZM488,456c0,7.15-7.88,15-21.09,21-15.6,7.09-36.52,11-58.91,11s-43.31-3.91-58.91-11C335.88,471,328,463.15,328,456V435.19a78.933,78.933,0,0,0,14.46,8.38C360.1,451.58,383.38,456,408,456s47.9-4.42,65.54-12.43A78.933,78.933,0,0,0,488,435.19Zm0-48c0,7.15-7.88,15-21.08,21-15.61,7.09-36.53,11-58.92,11s-43.31-3.91-58.92-11c-13.2-6-21.08-13.85-21.08-21V387.19a78.933,78.933,0,0,0,14.46,8.38C360.1,403.58,383.38,408,408,408s47.9-4.42,65.54-12.43A78.933,78.933,0,0,0,488,387.19Zm0-48c0,7.15-7.88,15-21.08,21-15.61,7.09-36.53,11-58.92,11s-43.31-3.91-58.92-11c-13.2-6-21.08-13.85-21.08-21V339.19a78.933,78.933,0,0,0,14.46,8.38C360.1,355.58,383.38,360,408,360s47.9-4.42,65.54-12.43A78.933,78.933,0,0,0,488,339.19Zm-21.08-27c-15.61,7.09-36.53,11-58.92,11s-43.31-3.91-58.92-11c-13.2-6-21.08-13.85-21.08-21s7.88-15,21.08-21c15.61-7.09,36.53-11,58.92-11s43.31,3.91,58.92,11c13.2,6,21.08,13.85,21.08,21S480.12,327,466.92,333Z" fill="#fff9f9" data-original="#000000" style="" class=""/></g></svg>
