<svg enable-background="new 0 0 51.998 60" height="512" viewBox="0 0 51.998 60" width="512" xmlns="http://www.w3.org/2000/svg"><path d="m30.744 1c-6.56 0-11.744 5.44-11.744 12v9h-8v6h8v19c0 3.281-2.72 6-6 6s-6-2.719-6-6h-6c0 6.56 5.44 12 12 12s12-5.44 12-12v-19h8v-6h-8v-9c0-3.281 2.464-6.051 5.744-6.051s6.256 2.77 6.256 6.051h6c0-6.56-5.696-12-12.256-12z" fill="#366db6"/><path d="m46.078 41.845-4.078 4.077-4.078-4.078c-1.126-1.126-2.952-1.126-4.078 0s-1.126 2.952 0 4.078l4.078 4.078-4.078 4.078c-1.126 1.126-1.126 2.952 0 4.078s2.952 1.126 4.078 0l4.078-4.078 4.078 4.078c1.126 1.126 2.952 1.126 4.078 0s1.126-2.952 0-4.078l-4.078-4.078 4.078-4.078c1.126-1.126 1.126-2.952 0-4.078s-2.952-1.125-4.078.001z" fill="#dd352e"/><g fill="#4d007e"><path d="m13 60c-7.168 0-13-5.832-13-13 0-.553.448-1 1-1h6c.552 0 1 .447 1 1 0 2.71 2.29 5 5 5s5-2.29 5-5v-18h-7c-.552 0-1-.447-1-1v-6c0-.553.448-1 1-1h7v-8c0-7.168 5.717-13 12.744-13 7.185 0 13.256 5.953 13.256 13 0 .553-.448 1-1 1h-6c-.552 0-1-.447-1-1 0-2.69-2.456-5.051-5.256-5.051-2.66 0-4.744 2.219-4.744 5.051v8h7c.552 0 1 .447 1 1v6c0 .553-.448 1-1 1h-7v18c0 7.168-5.832 13-13 13zm-10.953-12c.525 5.515 5.327 10 10.953 10 5.963 0 11-5.037 11-11v-19c0-.553.448-1 1-1h7v-4h-7c-.552 0-1-.447-1-1v-9c0-3.954 2.962-7.051 6.744-7.051 3.518 0 6.643 2.729 7.176 6.051h4.031c-.536-5.515-5.45-10-11.207-10-5.924 0-10.744 4.935-10.744 11v9c0 .553-.448 1-1 1h-7v4h7c.552 0 1 .447 1 1v19c0 3.859-3.14 7-7 7-3.52 0-6.442-2.612-6.929-6z"/><path d="m35.884 59.998c-.995 0-1.989-.379-2.746-1.136-1.514-1.514-1.514-3.978 0-5.491l3.37-3.371-3.371-3.371c-1.514-1.514-1.514-3.978 0-5.491 1.514-1.514 3.978-1.514 5.492 0l3.371 3.37 3.371-3.37c1.514-1.514 3.978-1.514 5.492 0s1.514 3.978 0 5.491l-3.371 3.371 3.371 3.371c1.514 1.514 1.514 3.978 0 5.491-1.514 1.514-3.978 1.514-5.492 0l-3.371-3.37-3.371 3.37c-.756.757-1.751 1.136-2.745 1.136zm-.001-17.997c-.482 0-.965.184-1.332.551-.734.734-.734 1.929 0 2.663l4.078 4.078c.391.391.391 1.023 0 1.414l-4.078 4.078c-.734.734-.734 1.929 0 2.663.735.734 1.93.734 2.664 0l4.078-4.077c.391-.391 1.023-.391 1.414 0l4.078 4.077c.734.734 1.929.734 2.664 0 .734-.734.734-1.929 0-2.663l-4.078-4.078c-.391-.391-.391-1.023 0-1.414l4.078-4.078c.734-.734.734-1.929 0-2.663s-1.929-.733-2.664 0l-4.078 4.077c-.391.391-1.023.391-1.414 0l-4.078-4.077c-.367-.367-.849-.551-1.332-.551zm10.195-.156h.01z"/></g></svg>