<svg id="Outline" enable-background="new 0 0 512 512" height="512" viewBox="0 0 512 512" width="512" xmlns="http://www.w3.org/2000/svg"><g><path d="m32 456c.025 22.081 17.919 39.975 40 40h296c61.851.006 111.996-50.129 112.002-111.98.004-43.264-24.912-82.66-64.002-101.199v-162.821c0-2.122-.843-4.157-2.343-5.657l-96-96c-1.5-1.5-3.535-2.343-5.657-2.343h-240c-22.081.025-39.975 17.919-40 40zm432-72c0 53.019-42.981 96-96 96s-96-42.981-96-96 42.981-96 96-96c52.995.06 95.94 43.005 96 96zm-144-340.687 68.687 68.687h-44.687c-13.249-.015-23.985-10.751-24-24zm-272 12.687c.015-13.248 10.752-23.985 24-24h232v56c.025 22.081 17.919 39.975 40 40h56v148.666c-59.265-17.683-121.643 16.025-139.327 75.289-14.627 49.023 5.828 101.725 49.696 128.045h-238.369c-13.248-.015-23.985-10.752-24-24z"/><path d="m160 168c0 4.418 3.582 8 8 8h192c4.418 0 8-3.582 8-8s-3.582-8-8-8h-192c-4.418 0-8 3.582-8 8z"/><path d="m88 224h160c4.418 0 8-3.582 8-8s-3.582-8-8-8h-160c-4.418 0-8 3.582-8 8s3.582 8 8 8z"/><path d="m280 256h-64c-4.418 0-8 3.582-8 8s3.582 8 8 8h64c4.418 0 8-3.582 8-8s-3.582-8-8-8z"/><path d="m88 320h144c4.418 0 8-3.582 8-8s-3.582-8-8-8h-144c-4.418 0-8 3.582-8 8s3.582 8 8 8z"/><path d="m88 176h48c4.418 0 8-3.582 8-8s-3.582-8-8-8h-48c-4.418 0-8 3.582-8 8s3.582 8 8 8z"/><path d="m360 208h-80c-4.418 0-8 3.582-8 8s3.582 8 8 8h80c4.418 0 8-3.582 8-8s-3.582-8-8-8z"/><path d="m88 272h96c4.418 0 8-3.582 8-8s-3.582-8-8-8h-96c-4.418 0-8 3.582-8 8s3.582 8 8 8z"/><path d="m216 400h-32c-4.418 0-8 3.582-8 8s3.582 8 8 8h32c4.418 0 8-3.582 8-8s-3.582-8-8-8z"/><path d="m88 416h64c4.418 0 8-3.582 8-8s-3.582-8-8-8h-64c-4.418 0-8 3.582-8 8s3.582 8 8 8z"/><path d="m88 368h48c4.418 0 8-3.582 8-8s-3.582-8-8-8h-48c-4.418 0-8 3.582-8 8s3.582 8 8 8z"/><path d="m88 128h96c4.418 0 8-3.582 8-8s-3.582-8-8-8h-96c-4.418 0-8 3.582-8 8s3.582 8 8 8z"/><path d="m216 352h-48c-4.418 0-8 3.582-8 8s3.582 8 8 8h48c4.418 0 8-3.582 8-8s-3.582-8-8-8z"/><path d="m322.879 329.854c-3.395 2.828-3.854 7.873-1.026 11.267 0 0 0 .001.001.001 0 0 30.333 36.449 39.97 47.964.971 1.161 2.556 2.512 5.331 2.87.28.036.563.044.845.044h56c4.418 0 8-3.582 8-8s-3.582-8-8-8h-52.253l-37.6-45.122c-2.828-3.394-7.873-3.853-11.268-1.024z"/></g></svg>