<?xml version="1.0" encoding="iso-8859-1"?>
<!-- Generator: Adobe Illustrator 19.0.0, SVG Export Plug-In . SVG Version: 6.00 Build 0)  -->
<svg version="1.1" id="Layer_1" xmlns="http://www.w3.org/2000/svg" xmlns:xlink="http://www.w3.org/1999/xlink" x="0px" y="0px"
	 viewBox="0 0 513.067 513.067" style="enable-background:new 0 0 513.067 513.067;" xml:space="preserve">
<g>
	<path style="fill:#F3705A;" d="M273.067,387.733v-23.467l-32-7.467c-1.067-6.4-2.133-11.733-4.267-17.067l24.533-22.4
		L249.6,297.067l-30.933,9.6c-4.267-4.267-8.533-8.533-12.8-12.8l9.6-30.933L195.2,251.2l-22.4,24.533
		c-5.333-2.133-11.733-3.2-17.067-4.267l-7.467-32H124.8l-7.467,32c-6.4,1.067-11.733,2.133-17.067,4.267l-22.4-24.533L57.6,262.933
		l9.6,30.933c-4.267,4.267-8.533,8.533-12.8,12.8l-30.933-9.6l-11.733,20.267l24.533,22.4c-2.133,5.333-3.2,11.733-4.267,17.067
		l-32,7.467v23.467l32,7.467c1.067,6.4,2.133,11.733,4.267,17.067l-24.533,22.4l11.733,20.267l30.933-9.6
		c4.267,4.267,8.533,8.533,12.8,12.8l-9.6,30.933L77.867,500.8l22.4-24.533c5.333,2.133,11.733,3.2,17.067,4.267l7.467,32h23.467
		l7.467-32c6.4-1.067,11.733-2.133,17.067-4.267l22.4,24.533l20.267-11.733l-9.6-30.933c4.267-4.267,8.533-8.533,12.8-12.8
		l30.933,9.6l11.733-20.267l-24.533-22.4c2.133-5.333,3.2-11.733,4.267-17.067L273.067,387.733z M136.533,440c-35.2,0-64-28.8-64-64
		s28.8-64,64-64s64,28.8,64,64S171.733,440,136.533,440z"/>
	<path style="fill:#F3705A;" d="M136.533,353.6c-12.8,0-22.4,10.667-22.4,22.4c0,12.8,10.667,22.4,22.4,22.4
		c12.8,0,22.4-10.667,22.4-22.4C158.933,363.2,149.333,353.6,136.533,353.6z"/>
</g>
<g>
	<path style="fill:#66C6B9;" d="M504.533,219.2L512,192.533L477.867,174.4c1.067-7.467,1.067-14.933,0-21.333l35.2-18.133
		l-8.533-27.733l-39.467,2.133c-3.2-6.4-6.4-12.8-10.667-19.2l21.333-33.067L455.467,36.8L422.4,58.133
		c-5.333-4.267-11.733-7.467-18.133-10.667L406.4,8l-27.733-7.467l-18.133,35.2c-7.467-1.067-14.933-1.067-21.333,0l-17.067-35.2
		L294.4,8l2.133,39.467c-6.4,3.2-12.8,6.4-19.2,10.667L244.267,36.8L224,56l21.333,33.067c-4.267,5.333-7.467,11.733-10.667,18.133
		l-39.467-2.133l-7.467,27.733l35.2,18.133c-1.067,7.467-1.067,14.933,0,21.333l-35.2,18.133l7.467,27.733L234.667,216
		c3.2,6.4,6.4,12.8,10.667,19.2L224,268.267l20.267,20.267l33.067-21.333c5.333,4.267,11.733,7.467,18.133,10.667l-2.133,39.467
		l27.733,7.467l18.133-34.133c7.467,1.067,14.933,1.067,21.333,0l18.133,35.2L406.4,318.4l-2.133-39.467
		c6.4-3.2,12.8-6.4,19.2-10.667l33.067,21.333l20.267-20.267l-21.333-33.067c4.267-5.333,7.467-11.733,10.667-18.133L504.533,219.2z
		 M333.867,222.4c-33.067-8.533-52.267-42.667-43.733-75.733S332.8,94.4,365.867,102.933c33.067,8.533,52.267,42.667,43.733,75.733
		C400,211.733,365.867,230.933,333.867,222.4z"/>
	<path style="fill:#66C6B9;" d="M357.333,136c-14.933-4.267-29.867,4.267-34.133,19.2c-4.267,14.933,4.267,29.867,19.2,34.133
		c14.933,4.267,29.867-4.267,34.133-19.2C379.733,155.2,371.2,140.267,357.333,136z"/>
</g>
<path style="fill:#FFD15C;" d="M182.4,165.867V139.2l-24.533-5.333c-1.067-5.333-3.2-10.667-6.4-14.933L165.333,97.6l-19.2-19.2
	L124.8,92.267c-4.267-3.2-9.6-5.333-14.933-6.4l-5.333-24.533H77.867l-5.333,24.533c-5.333,1.067-10.667,3.2-14.933,6.4L36.267,78.4
	l-19.2,19.2l13.867,20.267c-3.2,5.333-5.333,9.6-6.4,16L0,139.2v26.667l24.533,5.333c1.067,5.333,3.2,10.667,6.4,14.933
	L17.067,206.4l19.2,19.2L57.6,211.733c4.267,3.2,9.6,5.333,14.933,6.4l5.333,24.533h26.667l5.333-24.533
	c5.333-1.067,10.667-3.2,16-6.4l20.267,13.867l19.2-19.2l-13.867-21.333c3.2-4.267,5.333-9.6,6.4-14.933L182.4,165.867z
	 M91.733,177.6c-13.867,0-24.533-10.667-24.533-24.533s10.667-24.533,24.533-24.533s24.533,10.667,24.533,24.533
	S104.533,177.6,91.733,177.6z"/>
<g>
</g>
<g>
</g>
<g>
</g>
<g>
</g>
<g>
</g>
<g>
</g>
<g>
</g>
<g>
</g>
<g>
</g>
<g>
</g>
<g>
</g>
<g>
</g>
<g>
</g>
<g>
</g>
<g>
</g>
</svg>
