<?xml version="1.0" encoding="iso-8859-1"?>
<!-- Generator: Adobe Illustrator 19.0.0, SVG Export Plug-In . SVG Version: 6.00 Build 0)  -->
<svg version="1.1" id="Layer_1" xmlns="http://www.w3.org/2000/svg" xmlns:xlink="http://www.w3.org/1999/xlink" x="0px" y="0px"
	 viewBox="0 0 504.48 504.48" style="enable-background:new 0 0 504.48 504.48;" xml:space="preserve">
<path style="fill:#2394BC;" d="M492.534,145.772L172.337,461.636c0,0-163.84,48.837-171.323,41.354s37.415-175.261,37.415-175.261
	L358.626,11.864c15.36-15.754,40.172-15.754,55.532,0l78.375,78.769C507.894,105.599,507.894,130.412,492.534,145.772z"/>
<path style="fill:#44A4C6;" d="M66.392,367.113L418.097,15.409l-3.938-3.938c-15.36-15.36-40.172-15.36-55.532,0.394L38.823,328.123
	c0,0-0.788,3.151-2.363,8.665L66.392,367.113L66.392,367.113z"/>
<path style="fill:#1F85A9;" d="M501.592,132.775c5.514-14.178,2.757-31.114-8.665-42.535l-7.877-7.877L133.346,434.067l30.72,30.326
	c4.332-1.182,7.089-1.969,8.271-2.363C172.337,462.03,501.592,132.775,501.592,132.775z"/>
<path style="fill:#FFCABA;" d="M0.62,501.809l2.363,2.363c18.511,2.757,160.689-39.385,169.354-42.142l0.394-0.394
	c0,0-9.058-42.535-16.935-50.018c-7.877-7.877-42.142-9.058-50.018-16.542c-7.877-7.877-8.665-42.142-16.935-50.018
	c-7.877-7.877-48.049-16.148-50.018-16.542C38.823,328.123-2.531,482.116,0.62,501.809L0.62,501.809z"/>
<path style="fill:#FFDCD2;" d="M0.226,499.839c2.757-4.726,16.542-29.145,88.222-154.781c-7.877-7.877-48.049-16.148-50.018-16.542
	C38.823,328.123-0.168,473.846,0.226,499.839z"/>
<path style="fill:#E5B5A7;" d="M0.226,500.233v1.182l2.363,2.363c18.511,2.757,160.689-39.385,169.354-42.142l0.394-0.394
	c0,0-8.665-42.142-16.542-50.018C25.432,486.055,3.771,498.264,0.226,500.233z"/>
<path style="fill:#2394BC;" d="M27.402,473.058c-5.12-5.12-13.391-9.058-21.662-9.846c-4.332,22.055-7.089,38.203-4.726,40.566
	c1.969,1.969,16.935-0.394,36.628-4.726C37.642,489.206,33.309,478.966,27.402,473.058z"/>
<g>
</g>
<g>
</g>
<g>
</g>
<g>
</g>
<g>
</g>
<g>
</g>
<g>
</g>
<g>
</g>
<g>
</g>
<g>
</g>
<g>
</g>
<g>
</g>
<g>
</g>
<g>
</g>
<g>
</g>
</svg>
