<?xml version="1.0" encoding="UTF-8"?>
<svg xmlns="http://www.w3.org/2000/svg" xmlns:xlink="http://www.w3.org/1999/xlink" width="16pt" height="16pt" viewBox="0 0 16 16" version="1.1">
<g id="surface1">
<path style=" stroke:none;fill-rule:nonzero;fill:rgb(13.72549%,58.039216%,73.72549%);fill-opacity:1;" d="M 15.621094 4.625 L 5.464844 14.640625 C 5.464844 14.640625 0.269531 16.191406 0.03125 15.953125 C -0.207031 15.714844 1.21875 10.394531 1.21875 10.394531 L 11.375 0.375 C 11.859375 -0.125 12.648438 -0.125 13.136719 0.375 L 15.621094 2.875 C 16.109375 3.347656 16.109375 4.136719 15.621094 4.625 Z M 15.621094 4.625 "/>
<path style=" stroke:none;fill-rule:nonzero;fill:rgb(26.666667%,64.313725%,77.647059%);fill-opacity:1;" d="M 2.105469 11.644531 L 13.261719 0.488281 L 13.136719 0.363281 C 12.648438 -0.125 11.859375 -0.125 11.375 0.375 L 1.230469 10.40625 C 1.230469 10.40625 1.207031 10.507812 1.15625 10.679688 Z M 2.105469 11.644531 "/>
<path style=" stroke:none;fill-rule:nonzero;fill:rgb(12.156863%,52.156863%,66.27451%);fill-opacity:1;" d="M 15.910156 4.210938 C 16.082031 3.761719 15.996094 3.222656 15.632812 2.863281 L 15.382812 2.613281 L 4.230469 13.765625 L 5.203125 14.730469 C 5.339844 14.691406 5.429688 14.667969 5.464844 14.652344 C 5.464844 14.652344 15.910156 4.210938 15.910156 4.210938 Z M 15.910156 4.210938 "/>
<path style=" stroke:none;fill-rule:nonzero;fill:rgb(100%,79.215686%,72.941176%);fill-opacity:1;" d="M 0.0195312 15.914062 L 0.09375 15.988281 C 0.683594 16.078125 5.191406 14.742188 5.464844 14.652344 L 5.476562 14.640625 C 5.476562 14.640625 5.191406 13.292969 4.941406 13.054688 C 4.691406 12.804688 3.605469 12.765625 3.355469 12.53125 C 3.105469 12.28125 3.078125 11.195312 2.816406 10.945312 C 2.566406 10.695312 1.292969 10.433594 1.230469 10.417969 C 1.230469 10.40625 -0.0820312 15.289062 0.0195312 15.914062 Z M 0.0195312 15.914062 "/>
<path style=" stroke:none;fill-rule:nonzero;fill:rgb(100%,86.27451%,82.352941%);fill-opacity:1;" d="M 0.0078125 15.851562 C 0.09375 15.703125 0.53125 14.929688 2.804688 10.945312 C 2.554688 10.695312 1.28125 10.433594 1.21875 10.417969 C 1.230469 10.40625 -0.00390625 15.027344 0.0078125 15.851562 Z M 0.0078125 15.851562 "/>
<path style=" stroke:none;fill-rule:nonzero;fill:rgb(89.803922%,70.980392%,65.490196%);fill-opacity:1;" d="M 0.0078125 15.867188 L 0.0078125 15.902344 L 0.0820312 15.976562 C 0.667969 16.066406 5.179688 14.730469 5.453125 14.640625 L 5.464844 14.628906 C 5.464844 14.628906 5.191406 13.292969 4.941406 13.042969 C 0.804688 15.414062 0.121094 15.804688 0.0078125 15.867188 Z M 0.0078125 15.867188 "/>
<path style=" stroke:none;fill-rule:nonzero;fill:rgb(13.72549%,58.039216%,73.72549%);fill-opacity:1;" d="M 0.867188 15.003906 C 0.707031 14.839844 0.445312 14.714844 0.183594 14.691406 C 0.0429688 15.390625 -0.0429688 15.902344 0.03125 15.976562 C 0.09375 16.039062 0.570312 15.964844 1.195312 15.828125 C 1.195312 15.515625 1.054688 15.191406 0.867188 15.003906 Z M 0.867188 15.003906 "/>
</g>
</svg>
