<?xml version="1.0" encoding="UTF-8"?>
<svg xmlns="http://www.w3.org/2000/svg" xmlns:xlink="http://www.w3.org/1999/xlink" width="12pt" height="12pt" viewBox="0 0 12 12" version="1.1">
<g id="surface1">
<path style=" stroke:none;fill-rule:nonzero;fill:rgb(100%,85.490196%,17.647059%);fill-opacity:1;" d="M 4.488281 7.511719 L 3.742188 6.765625 L 0.308594 10.199219 C -0.101562 10.609375 -0.101562 11.28125 0.308594 11.691406 C 0.722656 12.101562 1.386719 12.101562 1.800781 11.691406 L 5.234375 8.257812 Z M 4.488281 7.511719 "/>
<path style=" stroke:none;fill-rule:nonzero;fill:rgb(100%,56.862745%,0%);fill-opacity:1;" d="M 1.800781 11.691406 L 5.234375 8.257812 L 4.488281 7.511719 L 0.308594 11.691406 C 0.722656 12.101562 1.386719 12.101562 1.800781 11.691406 Z M 1.800781 11.691406 "/>
<path style=" stroke:none;fill-rule:nonzero;fill:rgb(34.901961%,42.352941%,46.27451%);fill-opacity:1;" d="M 11.996094 4.570312 C 11.996094 7.09375 9.953125 9.136719 7.429688 9.136719 C 4.90625 9.136719 2.863281 7.09375 2.863281 4.570312 C 2.863281 2.046875 4.90625 0.00390625 7.429688 0.00390625 C 9.953125 0.00390625 11.996094 2.046875 11.996094 4.570312 Z M 11.996094 4.570312 "/>
<path style=" stroke:none;fill-rule:nonzero;fill:rgb(27.45098%,35.294118%,38.039216%);fill-opacity:1;" d="M 10.660156 7.800781 C 12.449219 6.011719 12.445312 3.125 10.660156 1.339844 L 4.199219 7.800781 C 5.988281 9.589844 8.875 9.585938 10.660156 7.800781 Z M 10.660156 7.800781 "/>
<path style=" stroke:none;fill-rule:nonzero;fill:rgb(94.901961%,94.901961%,94.901961%);fill-opacity:1;" d="M 11.292969 4.570312 C 11.292969 6.707031 9.5625 8.4375 7.429688 8.4375 C 5.292969 8.4375 3.5625 6.707031 3.5625 4.570312 C 3.5625 2.4375 5.292969 0.707031 7.429688 0.707031 C 9.5625 0.707031 11.292969 2.4375 11.292969 4.570312 Z M 11.292969 4.570312 "/>
<path style=" stroke:none;fill-rule:nonzero;fill:rgb(85.490196%,92.941176%,100%);fill-opacity:1;" d="M 10.164062 7.304688 C 11.675781 5.792969 11.675781 3.351562 10.164062 1.835938 L 4.695312 7.304688 C 6.207031 8.816406 8.648438 8.816406 10.164062 7.304688 Z M 10.164062 7.304688 "/>
<path style=" stroke:none;fill-rule:nonzero;fill:rgb(99.215686%,74.901961%,0%);fill-opacity:1;" d="M 9.1875 6.328125 L 8.132812 6.328125 L 7.429688 5.851562 L 7.429688 4.21875 L 9.1875 4.21875 C 9.382812 4.21875 9.539062 4.375 9.539062 4.570312 L 9.539062 5.976562 C 9.539062 6.171875 9.382812 6.328125 9.1875 6.328125 Z M 9.1875 6.328125 "/>
<path style=" stroke:none;fill-rule:nonzero;fill:rgb(12.156863%,80.784314%,98.823529%);fill-opacity:1;" d="M 5.671875 3.515625 C 5.476562 3.515625 5.320312 3.671875 5.320312 3.867188 L 5.320312 5.976562 C 5.320312 6.171875 5.476562 6.328125 5.671875 6.328125 L 6.726562 6.328125 L 7.429688 5.839844 L 7.429688 3.515625 Z M 5.671875 3.515625 "/>
<path style=" stroke:none;fill-rule:nonzero;fill:rgb(29.411765%,59.215686%,96.862745%);fill-opacity:1;" d="M 7.429688 5.839844 L 7.429688 4.570312 L 5.671875 6.328125 L 6.726562 6.328125 Z M 7.429688 5.839844 "/>
<path style=" stroke:none;fill-rule:nonzero;fill:rgb(99.607843%,50.588235%,5.098039%);fill-opacity:1;" d="M 7.78125 2.109375 L 7.078125 2.109375 C 6.882812 2.109375 6.726562 2.265625 6.726562 2.460938 L 6.726562 6.328125 L 8.132812 6.328125 L 8.132812 2.460938 C 8.132812 2.265625 7.976562 2.109375 7.78125 2.109375 Z M 7.78125 2.109375 "/>
<path style=" stroke:none;fill-rule:nonzero;fill:rgb(100%,28.627451%,35.294118%);fill-opacity:1;" d="M 8.132812 6.328125 L 8.132812 3.867188 L 6.726562 5.273438 L 6.726562 6.328125 Z M 8.132812 6.328125 "/>
</g>
</svg>
