<svg id="Capa_1" enable-background="new 0 0 512.007 512.007" height="512" viewBox="0 0 512.007 512.007" width="512" xmlns="http://www.w3.org/2000/svg"><g><path d="m191.492 320.515-31.816-31.816-146.514 146.483c-17.549 17.549-17.549 46.084 0 63.633 17.598 17.598 46.051 17.582 63.633 0l146.514-146.483z" fill="#ffda2d"/><path d="m76.794 498.815 146.514-146.483-31.816-31.816-178.331 178.3c17.599 17.597 46.052 17.58 63.633-.001z" fill="#ff9100"/><circle cx="317" cy="195.007" fill="#596c76" r="194.907"/><path d="m454.82 332.827c76.273-76.273 76.227-199.413 0-275.64l-275.64 275.64c76.273 76.273 199.413 76.227 275.64 0z" fill="#465a61"/><circle cx="317" cy="195.007" fill="#f2f2f2" r="164.923"/><path d="m433.618 311.625c64.497-64.497 64.537-168.699 0-233.236l-233.236 233.236c64.497 64.497 168.699 64.538 233.236 0z" fill="#daedff"/><path d="m392 270.007h-45l-30-20.282v-69.718h75c8.284 0 15 6.716 15 15v60c0 8.284-6.716 15-15 15z" fill="#fdbf00"/><path d="m242 150.007c-8.284 0-15 6.716-15 15v90c0 8.284 6.716 15 15 15h45l30-20.916v-54.084-45z" fill="#1fcefc"/><path d="m317 249.091v-54.084l-75 75h45z" fill="#4b97f7"/><path d="m332 90.007h-30c-8.284 0-15 6.716-15 15v120 45h60v-105-60c0-8.284-6.716-15-15-15z" fill="#fe810d"/><path d="m347 270.007v-105l-60 60v45z" fill="#ff495a"/></g></svg>