<svg viewBox="0 -72 512 512" xmlns="http://www.w3.org/2000/svg"><path d="m392 128c-5.472656 0-10.941406.371094-16.347656 1.109375.230468-3.035156.347656-6.078125.347656-9.109375 0-66.167969-53.832031-120-120-120-29.117188 0-57.195312 10.558594-79.066406 29.734375-19.820313 17.375-33.324219 40.699219-38.527344 66.289063-.804688-.015626-1.609375-.023438-2.40625-.023438-74.992188 0-136 61.011719-136 136s61.007812 136 136 136h256c66.167969 0 120-53.832031 120-120s-53.832031-120-120-120zm0 0" fill="#69bff5"/><path d="m416 336h-256c-74.992188 0-136-61.011719-136-136 0-23.347656 5.914062-45.339844 16.324219-64.558594-24.886719 24.660156-40.324219 58.839844-40.324219 96.558594 0 74.988281 61.007812 136 136 136h256c46.40625 0 86.742188-26.480469 106.699219-65.125-21.542969 20.515625-50.675781 33.125-82.699219 33.125zm0 0" fill="#44aff2"/><g fill="#f4f5f7"><path d="m356.4375 177.34375c-3.675781-2.449219-8.640625-1.457031-11.09375 2.21875l-4.175781 6.261719c-9.855469-37.820313-44.300781-65.824219-85.167969-65.824219-34.996094 0-66.660156 20.722656-80.675781 52.796875-1.765625 4.050781.082031 8.765625 4.128906 10.535156 4.050781 1.765625 8.765625-.078125 10.535156-4.128906 11.464844-26.246094 37.378907-43.203125 66.011719-43.203125 34.136719 0 62.777344 23.886719 70.144531 55.8125l-9.707031-6.46875c-3.675781-2.449219-8.640625-1.457031-11.09375 2.21875-2.449219 3.675781-1.457031 8.644531 2.21875 11.09375l23.953125 15.96875c3.652344 2.433594 8.679687 1.460938 11.140625-2.1875l16-24c2.449219-3.675781 1.457031-8.644531-2.21875-11.09375zm0 0"/><path d="m332.828125 231.769531c-4.066406-1.71875-8.761719.183594-10.484375 4.253907-11.296875 26.714843-37.339844 43.976562-66.34375 43.976562-34.136719 0-62.777344-23.886719-70.144531-55.8125l9.707031 6.46875c3.675781 2.449219 8.640625 1.457031 11.09375-2.21875 2.449219-3.675781 1.457031-8.644531-2.21875-11.09375l-23.953125-15.96875c-3.667969-2.445312-8.664063-1.449219-11.140625 2.1875l-16 24c-3.125 4.683594-.371094 11.257812 5.179688 12.300781 2.75.515625 5.636718-.476562 7.484374-2.582031.898438-1.023438 1.597657-2.269531 2.351563-3.402344.824219-1.234375 1.648437-2.46875 2.472656-3.703125 9.855469 37.820313 44.300781 65.824219 85.167969 65.824219 35.445312 0 67.273438-21.097656 81.082031-53.742188 1.722657-4.070312-.183593-8.765624-4.253906-10.488281zm0 0"/></g></svg>