<svg id="Layer_1" enable-background="new 0 0 494.9 494.9" height="512" viewBox="0 0 494.9 494.9" width="512" xmlns="http://www.w3.org/2000/svg"><path d="m286.95 59.76v.24c-.29 30.58-55.51 55.74-126.57 59.13 2.628 109.632-44.28 211.411-124.99 281.01-21.47-10.46-34.44-24.05-34.44-38.9v-301.48c0-33 64.02-59.76 143-59.76s143 26.76 143 59.76z" fill="#8ab2ff"/><path d="m493.95 209.76v225.48c0 45.064-110.019 70.211-196.63 55.41-34.099-5.713-89.37-23.337-89.37-55.41v-225.48c0-37.135 75.016-59.76 143-59.76 78.98 0 143 26.76 143 59.76z" fill="#8ab2ff"/><path d="m350.95 150c78.98 0 143 26.76 143 59.76 0 33.01-64.02 59.77-143 59.77s-143-26.76-143-59.77c0-36.446 73.446-59.76 143-59.76z" fill="#a6c4ff"/><path d="m286.95 59.76v.24c-.31 32.9-64.21 59.53-143 59.53-78.954 0-143-26.748-143-59.77 0-33 64.02-59.76 143-59.76s143 26.76 143 59.76z" fill="#a6c4ff"/><path d="m493.95 209.76v225.48c0 47.823-124.141 73.518-213.9 51.91 63.997-57.043 103.152-132.832 99.68-218.83 65.18-5.57 114.22-29.67 114.22-58.56z" fill="#7da7fa"/><path d="m493.95 291.09v25.1c-57.67 48.151-228.356 48.13-286 0v-25.1c10.552 25.909 80.273 49.693 165.57 44.66 65.81-3.87 112.15-24.32 120.43-44.66z" fill="#779fee"/><path d="m286.95 60v96.31c-29.635 6.208-79 23.273-79 53.45v204.93c-52.871 11.096-125.99 8.162-172.56-14.55 80.065-69.044 127.637-170.606 124.99-281.01 71.06-3.39 126.28-28.55 126.57-59.13z" fill="#7da7fa"/><g fill="#779fee"><path d="m493.95 366.38v25.11c-57.805 48.264-228.292 48.183-286 0v-25.11c8.88 21.82 61.52 43.76 135.01 45.25 82.241 1.567 141.523-21.995 150.99-45.25z"/><path d="m230.29 177.68c-7.552 4.948-15.142 11.538-19.23 19.63-19.645 3.035-44.5 5.81-64.54 5.81-45.339 0-112.64-8.777-145.57-37.19v-27.41c5.88 28.508 81.977 51.192 154.66 48.42 23.58-.88 53.03-4.88 74.68-9.26z"/><path d="m207.95 257.34v16.23c-66.801 11.036-165.396 3.549-207-32.35v-27.44c6.846 33.617 110.966 60.303 207 43.56z"/><path d="m207.95 332.63v16.23c-39.712 6.592-84.828 6.387-123.57-.1-27.151-4.537-62.503-14.184-83.43-32.24v-27.43c6.914 33.797 111.471 60.278 207 43.54z"/></g></svg>