<svg id="Layer_1" enable-background="new 0 0 150 150" height="512" viewBox="0 0 150 150" width="512" xmlns="http://www.w3.org/2000/svg"><g><path d="m55.177 40.809h79.369v5.944h-79.369z" fill="#ebf0f3" transform="matrix(.705 -.709 .709 .705 -3.085 80.14)"/><path d="m42.858 13.339h5.944v61.631h-5.944z" fill="#d5d6db" transform="matrix(.813 -.583 .583 .813 -17.145 34.975)"/><path d="m94.98 58.005h5.944v82.275h-5.944z" fill="#d5d6db" transform="matrix(.728 -.686 .686 .728 -41.331 94.215)"/><path d="m10.527 95.676h61.988v5.944h-61.988z" fill="#e1e6e9" transform="matrix(.718 -.696 .696 .718 -56.939 56.684)"/><path d="m66.886 47.213c-13.659-.01-24.74 11.054-24.75 24.713s11.054 24.74 24.713 24.75 24.74-11.054 24.75-24.713c0-.012 0-.025 0-.037-.011-13.645-11.069-24.703-24.713-24.713z" fill="#27a2db"/><path d="m121.879 0c-9.009 0-16.313 7.303-16.313 16.312s7.303 16.313 16.313 16.313c9.009 0 16.313-7.303 16.313-16.312-.01-9.005-7.308-16.303-16.313-16.313z" fill="#44c4a1"/><path d="m26.892 0c-10.117-.01-18.327 8.183-18.338 18.3s8.183 18.327 18.3 18.337 18.327-8.183 18.337-18.3c0-.006 0-.012 0-.019.001-10.109-8.189-18.308-18.299-18.318z" fill="#e56353"/><path d="m121.523 102.825c-13.027 0-23.587 10.56-23.587 23.588 0 13.027 10.56 23.587 23.588 23.587 13.027 0 23.587-10.561 23.587-23.588 0-.006 0-.012 0-.019 0-13.017-10.552-23.569-23.569-23.569-.006.001-.013.001-.019.001z" fill="#fcd462"/><path d="m23.217 98.663c-10.117-.01-18.327 8.183-18.337 18.3s8.183 18.327 18.3 18.338c10.117.01 18.327-8.183 18.337-18.3 0-.012 0-.025 0-.037 0-10.108-8.193-18.301-18.3-18.301z" fill="#89c5cd"/></g></svg>