<?xml version="1.0" standalone="no"?><!DOCTYPE svg PUBLIC "-//W3C//DTD SVG 1.1//EN" "http://www.w3.org/Graphics/SVG/1.1/DTD/svg11.dtd"><svg t="1588265263529" class="icon" viewBox="0 0 1238 1024" version="1.1" xmlns="http://www.w3.org/2000/svg" p-id="2164" xmlns:xlink="http://www.w3.org/1999/xlink" width="241.796875" height="200"><defs><style type="text/css"></style></defs><path d="M1236.232258 263.432258v474.012903c0 72.670968-137.909677 132.129032-308.025806 132.129033-124.696774 0-231.225806-31.380645-279.948387-76.8-18.167742-16.516129-28.077419-35.509677-28.07742-55.329033V263.432258C620.180645 190.76129 758.090323 131.303226 929.032258 131.303226c169.290323 0 307.2 59.458065 307.2 132.129032z" fill="#3973F4" p-id="2165"></path><path d="M621.006452 260.129032a307.2 128 0 1 0 614.4 0 307.2 128 0 1 0-614.4 0Z" fill="#4988FD" p-id="2166"></path><path d="M1236.232258 418.683871v30.554839C1197.419355 506.219355 1075.2 547.509677 928.206452 547.509677c-146.167742 0-269.212903-41.290323-308.025807-98.270967v-31.380645c10.735484 65.23871 146.993548 117.264516 308.025807 117.264516 162.683871 0 297.290323-51.2 308.025806-116.43871zM1236.232258 584.670968v30.554838C1197.419355 672.206452 1075.2 713.496774 928.206452 713.496774c-146.167742 0-269.212903-41.290323-308.025807-98.270968v-31.380645c10.735484 65.23871 146.993548 117.264516 308.025807 117.264516 162.683871 0 297.290323-51.2 308.025806-116.438709z" fill="#2767F4" p-id="2167"></path><path d="M853.883871 188.283871v649.909677c0 99.922581-189.935484 181.677419-423.63871 181.67742-170.941935 0-317.935484-42.941935-384.825806-105.703226-24.774194-23.122581-38.812903-48.722581-38.812903-75.974194V188.283871c0-99.922581 189.935484-181.677419 423.638709-181.677419 233.703226 0.825806 423.63871 81.754839 423.63871 181.677419z" fill="#4988FD" p-id="2168"></path><path d="M8.258065 184.154839a421.987097 175.896774 0 1 0 843.974193 0 421.987097 175.896774 0 1 0-843.974193 0Z" fill="#6097FD" p-id="2169"></path><path d="M853.883871 402.167742v42.116129c-53.677419 78.451613-221.316129 134.606452-423.63871 134.606452-200.670968 0-369.96129-56.154839-423.638709-134.606452v-42.941936c14.03871 89.187097 201.496774 161.032258 423.638709 161.032259 222.967742 0 407.948387-71.019355 423.63871-160.206452zM853.883871 629.264516v42.116129c-53.677419 78.451613-221.316129 134.606452-423.63871 134.606452-200.670968 0-369.96129-56.154839-423.638709-134.606452v-42.941935c14.03871 89.187097 201.496774 161.032258 423.638709 161.032258 222.967742 0 407.948387-71.019355 423.63871-160.206452z" fill="#3973F4" p-id="2170"></path><path d="M51.2 391.432258a28.903226 24.774194 90 1 0 49.548387 0 28.903226 24.774194 90 1 0-49.548387 0Z" fill="#FFFFFF" p-id="2171"></path><path d="M130.477419 427.767742a28.903226 24.774194 90 1 0 49.548387 0 28.903226 24.774194 90 1 0-49.548387 0Z" fill="#21D3AC" p-id="2172"></path><path d="M51.2 616.051613a28.903226 24.774194 90 1 0 49.548387 0 28.903226 24.774194 90 1 0-49.548387 0Z" fill="#FFFFFF" p-id="2173"></path><path d="M130.477419 652.387097a28.903226 24.774194 90 1 0 49.548387 0 28.903226 24.774194 90 1 0-49.548387 0Z" fill="#21D3AC" p-id="2174"></path><path d="M51.2 835.716129a28.903226 24.774194 90 1 0 49.548387 0 28.903226 24.774194 90 1 0-49.548387 0Z" fill="#FFFFFF" p-id="2175"></path><path d="M130.477419 871.225806a28.903226 24.774194 90 1 0 49.548387 0 28.903226 24.774194 90 1 0-49.548387 0Z" fill="#21D3AC" p-id="2176"></path></svg>