<svg xmlns="http://www.w3.org/2000/svg" xmlns:xlink="http://www.w3.org/1999/xlink" width="206.445" height="200" class="icon" p-id="6356" t="1596702414309" version="1.1" viewBox="0 0 1057 1024"><defs><style type="text/css"/></defs><path fill="#A6C5F6" d="M502.782324 1024a502.782324 502.782324 0 1 1 502.782324-502.782324 502.782324 502.782324 0 0 1-502.782324 502.782324z m0-921.767594a418.98527 418.98527 0 1 0 418.98527 418.98527 418.98527 418.98527 0 0 0-418.98527-418.566285z" p-id="6357"/><path fill="#4E8CEE" d="M269.826514 107.679214m-107.679214 0a107.679214 107.679214 0 1 0 215.358428 0 107.679214 107.679214 0 1 0-215.358428 0Z" p-id="6358"/><path fill="#4E8CEE" d="M502.363339 521.636661m-269.826514 0a269.826514 269.826514 0 1 0 539.653028 0 269.826514 269.826514 0 1 0-539.653028 0Z" p-id="6359"/><path fill="#4E8CEE" d="M268.569558 914.644845m-107.679214 0a107.679214 107.679214 0 1 0 215.358429 0 107.679214 107.679214 0 1 0-215.358429 0Z" p-id="6360"/><path fill="#4E8CEE" d="M949.839607 520.379705m-107.679214 0a107.679214 107.679214 0 1 0 215.358429 0 107.679214 107.679214 0 1 0-215.358429 0Z" p-id="6361"/></svg>