<?xml version="1.0" encoding="iso-8859-1"?>
<!-- Generator: Adobe Illustrator 19.0.0, SVG Export Plug-In . SVG Version: 6.00 Build 0)  -->
<svg version="1.1" id="Layer_1" xmlns="http://www.w3.org/2000/svg" xmlns:xlink="http://www.w3.org/1999/xlink" x="0px" y="0px"
	 viewBox="0 0 512 512" style="enable-background:new 0 0 512 512;" xml:space="preserve">
<path style="fill:#00D7DF;" d="M255.939,511.938C114.811,511.938,0,397.127,0,255.999S114.811,0.061,255.939,0.061
	s255.939,114.811,255.939,255.939S397.066,511.938,255.939,511.938z"/>
<path style="fill:#00B6BD;" d="M256.061,0.061c-1.908,0-3.791,0.102-5.688,0.145v511.589c1.897,0.041,3.78,0.145,5.688,0.145
	C397.189,511.939,512,397.128,512,256.001S397.189,0.061,256.061,0.061z"/>
<path style="fill:#FFFFFF;" d="M136.506,383.997h-14.13c-9.222,0-16.695-7.473-16.695-16.695c0-9.222,7.473-16.695,16.695-16.695
	h14.13c23.25,0,43.282-15.788,48.706-38.396l42.206-175.866c9.043-37.679,42.423-63.993,81.173-63.993h14.13
	c9.222,0,16.695,7.473,16.695,16.695s-7.473,16.695-16.695,16.695h-14.13c-23.25,0-43.282,15.788-48.706,38.396l-42.206,175.866
	C208.635,357.682,175.256,383.997,136.506,383.997z"/>
<g>
	<path style="fill:#FFE6B3;" d="M345.654,288.717c-6.521-6.521-17.087-6.521-23.608,0l-21.587,21.587l-21.586-21.587
		c-6.521-6.521-17.087-6.521-23.608,0c-6.521,6.516-6.521,17.091,0,23.608l21.587,21.587l-21.586,21.586
		c-6.521,6.516-6.521,17.092,0,23.608c3.261,3.261,7.533,4.892,11.804,4.892c4.271,0,8.544-1.631,11.804-4.892l21.587-21.587
		l21.587,21.587c3.261,3.261,7.533,4.892,11.804,4.892s8.544-1.631,11.804-4.892c6.521-6.516,6.521-17.092,0-23.608l-21.587-21.587
		l21.587-21.587C352.176,305.808,352.176,295.232,345.654,288.717z"/>
	<path style="fill:#FFE6B3;" d="M322.72,72.351h-14.13c-22.437,0-43.062,8.835-58.216,23.578v87.837l9.511-39.629
		c5.424-22.608,25.456-38.396,48.706-38.396h14.13c9.222,0,16.695-7.473,16.695-16.695S331.942,72.351,322.72,72.351z"/>
</g>
<g>
</g>
<g>
</g>
<g>
</g>
<g>
</g>
<g>
</g>
<g>
</g>
<g>
</g>
<g>
</g>
<g>
</g>
<g>
</g>
<g>
</g>
<g>
</g>
<g>
</g>
<g>
</g>
<g>
</g>
</svg>
