<?xml version="1.0" encoding="iso-8859-1"?>
<!-- Generator: Adobe Illustrator 19.0.0, SVG Export Plug-In . SVG Version: 6.00 Build 0)  -->
<svg version="1.1" id="Capa_1" xmlns="http://www.w3.org/2000/svg" xmlns:xlink="http://www.w3.org/1999/xlink" x="0px" y="0px"
	 viewBox="0 0 512 512" style="enable-background:new 0 0 512 512;" xml:space="preserve">
<circle style="fill:#366DB6;" cx="256" cy="256" r="256"/>
<g>
	<path style="fill:#FFFFFF;" d="M300.138,79.448c-38.938,0-70.621,31.682-70.621,70.621v52.966h-44.138v35.31h44.138v114.759
		c0,19.474-15.837,35.31-35.31,35.31s-35.31-15.837-35.31-35.31h-35.31c0,38.938,31.682,70.621,70.621,70.621
		s70.621-31.682,70.621-70.621V238.345h44.138v-35.31h-44.138v-52.966c0-19.474,15.837-35.31,35.31-35.31s35.31,15.837,35.31,35.31
		h35.31C370.759,111.13,339.076,79.448,300.138,79.448z"/>
	<path style="fill:#FFFFFF;" d="M397.241,406.069c-2.26,0-4.52-0.865-6.241-2.586l-70.621-70.621c-3.452-3.452-3.452-9.031,0-12.482
		c3.443-3.452,9.039-3.452,12.482,0L403.482,391c3.452,3.452,3.452,9.031,0,12.482C401.761,405.204,399.501,406.069,397.241,406.069
		z"/>
	<path style="fill:#FFFFFF;" d="M326.621,406.069c-2.26,0-4.52-0.865-6.241-2.586c-3.452-3.452-3.452-9.031,0-12.482L391,320.38
		c3.443-3.452,9.039-3.452,12.482,0c3.452,3.452,3.452,9.031,0,12.482l-70.621,70.621
		C331.14,405.204,328.881,406.069,326.621,406.069z"/>
</g>
<g>
</g>
<g>
</g>
<g>
</g>
<g>
</g>
<g>
</g>
<g>
</g>
<g>
</g>
<g>
</g>
<g>
</g>
<g>
</g>
<g>
</g>
<g>
</g>
<g>
</g>
<g>
</g>
<g>
</g>
</svg>
