<svg id="Flat" height="512" viewBox="0 0 512 512" width="512" xmlns="http://www.w3.org/2000/svg"><path d="m376 488h-304a32 32 0 0 1 -32-32v-400a32 32 0 0 1 32-32h240l96 96v336a32 32 0 0 1 -32 32z" fill="#e9eef2"/><g fill="#c3c6c7"><path d="m408 120h-64a32 32 0 0 1 -32-32v-64z"/><path d="m360 176h-192a8 8 0 0 1 0-16h192a8 8 0 0 1 0 16z"/><path d="m248 224h-160a8 8 0 0 1 0-16h160a8 8 0 0 1 0 16z"/><path d="m280 272h-64a8 8 0 0 1 0-16h64a8 8 0 0 1 0 16z"/><path d="m232 320h-144a8 8 0 0 1 0-16h144a8 8 0 0 1 0 16z"/><path d="m136 176h-48a8 8 0 0 1 0-16h48a8 8 0 0 1 0 16z"/><path d="m360 224h-80a8 8 0 0 1 0-16h80a8 8 0 0 1 0 16z"/><path d="m184 272h-96a8 8 0 0 1 0-16h96a8 8 0 0 1 0 16z"/><path d="m216 416h-32a8 8 0 0 1 0-16h32a8 8 0 0 1 0 16z"/><path d="m152 416h-64a8 8 0 0 1 0-16h64a8 8 0 0 1 0 16z"/><path d="m136 368h-48a8 8 0 0 1 0-16h48a8 8 0 0 1 0 16z"/><path d="m184 128h-96a8 8 0 0 1 0-16h96a8 8 0 0 1 0 16z"/><path d="m216 368h-48a8 8 0 0 1 0-16h48a8 8 0 0 1 0 16z"/></g><circle cx="368" cy="384" fill="#f79539" r="104"/><path d="m424 376h-52.253l-37.6-45.122a8 8 0 0 0 -12.292 10.244l40 48a7.985 7.985 0 0 0 6.145 2.878h56a8 8 0 0 0 0-16z" fill="#e9eef2"/></svg>