<svg xmlns="http://www.w3.org/2000/svg" xmlns:xlink="http://www.w3.org/1999/xlink" viewBox="0 0 31 67" fill="#fff" fill-rule="evenodd" stroke="#000" stroke-linecap="round" stroke-linejoin="round"><use xlink:href="#A" x="1" y="1"/><symbol id="A" overflow="visible"><g stroke="none" fill-rule="nonzero"><path d="M14.174.175l1.708 3.208c.371.579.804 1.117 1.29 1.604 1.43 1.43 2.788 2.928 4.008 4.532 2.894 3.8 4.846 8 6.24 12.584a30.94 30.94 0 0 1 1.324 8.54c.14 8.646-2.824 16.07-8.8 22.24-.972.978-2.022 1.876-3.14 2.684-.592 0-.872-.454-1.116-.872-.454-.766-.732-1.64-.872-2.51-.21-1.046-.348-2.092-.28-3.172v-.488c-.048-.124-.57-48.124-.362-48.35z" fill="#599636"/><path d="M14.174.069c-.07-.14-.14-.034-.21.034.034.7-.21 1.324-.592 1.92-.4.592-.976 1.046-1.534 1.534-3.1 2.684-5.54 5.926-7.494 9.552-2.6 4.88-3.94 10.11-4.32 15.616-.174 1.986.628 8.994 1.254 11.016 1.708 5.368 4.776 9.866 8.75 13.77a35.08 35.08 0 0 0 3.1 2.65c.314 0 .348-.28.4-.488a9.57 9.57 0 0 0 .314-1.36l.7-5.228L14.174.069z" fill="#6cac48"/><path d="M15.882 57.691c.07-.8.454-1.464.872-2.126-.4-.174-.732-.52-.976-.906a6.47 6.47 0 0 1-.52-1.15c-.488-1.464-.592-3-.732-4.496v-.906c-.174.14-.21 1.324-.21 1.5-.102 1.581-.312 3.154-.628 4.706-.104.628-.174 1.254-.56 1.812 0 .07 0 .14.034.244.628 1.848.8 3.73.906 5.648v.7c0 .836-.034.66.66.94.28.104.592.14.872.348.21 0 .244-.174.244-.314l-.104-1.15v-3.208c-.034-.56.07-1.116.14-1.64z" fill="#c2bfbf"/></g></symbol></svg>