<svg xmlns="http://www.w3.org/2000/svg" xmlns:xlink="http://www.w3.org/1999/xlink" width="200" height="200" class="icon" p-id="720" t="1592268772971" version="1.1" viewBox="0 0 1024 1024"><defs><style type="text/css"/></defs><path fill="#D9D9D9" d="M381 515h266v160H381z" p-id="721"/><path fill="#D9D9D9" d="M1022 164.3c0-17.3-14-31.3-31.3-31.3H39.3C22 133 8 147 8 164.3v745.5C8 927 22 941 39.3 941h951.5c17.3 0 31.3-14 31.3-31.3V164.3zM966 515H701v160h265v52H701v161h-54V727H381v161h-53V727H62v-52h266V515H62v-54h266V300h53v161h266V300h54v161h265v54z" p-id="722"/><path fill="#FFAD40" d="M1020.5 254H7.7V145.3c0-39.4 32.2-71.6 71.6-71.6h869.6c39.4 0 71.6 32.2 71.6 71.6V254z" p-id="723"/></svg>