<svg id="_x31_px" enable-background="new 0 0 24 24" height="512" viewBox="0 0 24 24" width="512" xmlns="http://www.w3.org/2000/svg"><path d="m12 11c-2.408 0-5-.626-5-2s2.592-2 5-2 5 .626 5 2-2.592 2-5 2zm0-3c-2.625 0-4 .743-4 1s1.375 1 4 1 4-.743 4-1-1.375-1-4-1z"/><path d="m12 17c-2.408 0-5-.626-5-2v-6c0-.276.224-.5.5-.5s.5.224.5.5v6c0 .257 1.375 1 4 1s4-.743 4-1v-6c0-.276.224-.5.5-.5s.5.224.5.5v6c0 1.374-2.592 2-5 2z"/><path d="m12 14c-2.408 0-5-.626-5-2 0-.276.224-.5.5-.5s.5.224.5.5c0 .257 1.375 1 4 1s4-.743 4-1c0-.276.224-.5.5-.5s.5.224.5.5c0 1.374-2.592 2-5 2z"/><path d="m.77 15c-.229 0-.435-.158-.487-.39-.188-.832-.283-1.71-.283-2.61 0-6.617 5.383-12 12-12 3.8 0 7.409 1.83 9.653 4.895.163.223.115.536-.108.699-.223.164-.536.114-.699-.108-2.056-2.809-5.364-4.486-8.846-4.486-6.065 0-11 4.935-11 11 0 .827.087 1.631.258 2.39.061.27-.108.537-.378.598-.037.008-.074.012-.11.012z"/><path d="m12 24c-3.829 0-7.454-1.853-9.695-4.957-.162-.224-.111-.537.112-.698.225-.163.536-.112.698.112 2.055 2.845 5.376 4.543 8.885 4.543 6.065 0 11-4.935 11-11 0-.838-.089-1.641-.266-2.384-.064-.269.102-.539.371-.602.271-.065.539.102.602.371.194.819.293 1.699.293 2.615 0 6.617-5.383 12-12 12z"/><path d="m2.55 24c-.274 0-.497-.221-.5-.495l-.05-5c-.001-.133.051-.262.145-.356.094-.096.222-.149.355-.149h5c.276 0 .5.224.5.5s-.224.5-.5.5h-4.495l.045 4.495c.003.276-.218.502-.495.505-.001 0-.003 0-.005 0z"/><path d="m21.5 6h-5c-.276 0-.5-.224-.5-.5s.224-.5.5-.5h4.5v-4.5c0-.276.224-.5.5-.5s.5.224.5.5v5c0 .276-.224.5-.5.5z"/></svg>