<?xml version="1.0" encoding="iso-8859-1"?>
<!-- Generator: Adobe Illustrator 19.0.0, SVG Export Plug-In . SVG Version: 6.00 Build 0)  -->
<svg version="1.1" id="Layer_1" xmlns="http://www.w3.org/2000/svg" xmlns:xlink="http://www.w3.org/1999/xlink" x="0px" y="0px"
	 viewBox="0 0 512 512" style="enable-background:new 0 0 512 512;" xml:space="preserve">
<path style="fill:#009BE6;" d="M277.946,227.297c0,0,60.502-89.293,193.754-32.58c0,0-0.688,136.353-91.187,141.18
	C290.012,340.724,277.946,227.297,277.946,227.297z"/>
<path style="fill:#49BBED;" d="M234.054,227.297c0,0-60.502-89.293-193.754-32.58c0,0,0.688,136.353,91.187,141.18
	C221.988,340.724,234.054,227.297,234.054,227.297z"/>
<path style="fill:#0082D2;" d="M486.933,205.001c0.408-6.008,0.439-9.738,0.439-10.209l0.052-10.418l-9.582-4.075
	c-74.23-31.598-127.854-19.989-159.765-4.692c-35.203,16.865-52.391,41.838-53.102,42.893l-3.218,4.754l0.606,5.695
	c0.042,0.46,0.522,4.702,1.818,11.327h-16.363c1.296-6.625,1.776-10.867,1.818-11.327l0.606-5.695l-3.218-4.754
	c-0.711-1.055-17.899-26.028-53.102-42.893c-31.911-15.297-85.535-26.906-159.765,4.692l-9.582,4.075l0.052,10.418
	c0,0.47,0.031,4.2,0.439,10.209H0v31.347h28.985c1.829,9.979,4.42,20.971,8.088,32.078c17.23,52.036,49.591,80.771,93.581,83.122
	c2.173,0.115,4.326,0.178,6.447,0.178c40.584,0,72.829-21.034,93.529-61.127c3.312-6.405,6.06-12.821,8.349-18.975h34.043
	c2.288,6.154,5.036,12.57,8.349,18.975c20.699,40.093,52.945,61.127,93.529,61.127c2.121,0,4.274-0.063,6.447-0.178
	c43.99-2.351,76.351-31.086,93.581-83.122c3.668-11.107,6.259-22.1,8.087-32.078H512v-31.347L486.933,205.001L486.933,205.001z
	 M202.418,276.911c-16.154,30.814-39.069,44.983-70.092,43.332c-61.471-3.281-73.477-85.608-75.797-115.169
	c46.153-17.512,87.301-18.15,122.42-1.87c19.978,9.258,32.789,21.891,38.578,28.505
	C215.865,240.936,211.665,259.273,202.418,276.911z M379.674,320.243c-31.013,1.641-53.938-12.518-70.092-43.332
	c-9.247-17.638-13.448-35.976-15.109-45.202c5.789-6.614,18.599-19.247,38.578-28.505c35.119-16.28,76.267-15.642,122.42,1.87
	C453.141,234.655,441.145,316.973,379.674,320.243z"/>
<path style="fill:#0070B4;" d="M486.933,205.001c0.408-6.008,0.439-9.738,0.439-10.209l0.052-10.418l-9.582-4.075
	c-74.23-31.598-127.854-19.989-159.765-4.692c-35.203,16.865-52.391,41.838-53.102,42.893l-3.218,4.754l0.606,5.695
	c0.042,0.46,0.522,4.702,1.818,11.327H256v31.347h17.021c2.288,6.154,5.036,12.57,8.349,18.975
	c20.699,40.093,52.945,61.127,93.529,61.127c2.121,0,4.274-0.063,6.447-0.178c43.99-2.351,76.351-31.086,93.581-83.122
	c3.668-11.107,6.259-22.1,8.087-32.078H512v-31.347L486.933,205.001L486.933,205.001z M379.674,320.243
	c-31.013,1.641-53.938-12.518-70.092-43.332c-9.247-17.638-13.448-35.976-15.109-45.202c5.789-6.614,18.599-19.247,38.578-28.505
	c35.119-16.28,76.267-15.642,122.42,1.87C453.141,234.655,441.145,316.973,379.674,320.243z"/>
<g>
</g>
<g>
</g>
<g>
</g>
<g>
</g>
<g>
</g>
<g>
</g>
<g>
</g>
<g>
</g>
<g>
</g>
<g>
</g>
<g>
</g>
<g>
</g>
<g>
</g>
<g>
</g>
<g>
</g>
</svg>
