<svg height="512" viewBox="0 0 128 128" width="512" xmlns="http://www.w3.org/2000/svg"><g id="Circle_Grid" data-name="Circle Grid"><circle cx="64" cy="64" fill="#3b5059" r="64"/></g><g id="icon"><path d="m38.44 62.81-10.4-10.4a17.232 17.232 0 0 1 24.37-24.37l10.4 10.4a17.232 17.232 0 0 1 -24.37 24.37zm7.879-29.25a9.022 9.022 0 0 0 -12.759 12.759l10.969 10.969a9.022 9.022 0 0 0 12.759-12.759z" fill="#eeefee"/><path d="m75.592 99.962-10.4-10.4a17.232 17.232 0 0 1 24.368-24.372l10.4 10.4a17.232 17.232 0 0 1 -24.37 24.37zm7.879-29.25a9.022 9.022 0 0 0 -12.759 12.759l10.969 10.969a9.022 9.022 0 0 0 12.759-12.759z" fill="#eeefee"/><path d="m71.61 77.318-20.928-20.928a4.036 4.036 0 0 1 5.708-5.708l20.928 20.928a4.036 4.036 0 0 1 -5.708 5.708z" fill="#dbd8dd"/></g></svg>