<svg xmlns="http://www.w3.org/2000/svg" xmlns:xlink="http://www.w3.org/1999/xlink" id="Capa_1" x="0" y="0" version="1.1" viewBox="0 0 430.498 430.498" xml:space="preserve" style="enable-background:new 0 0 430.498 430.498"><path style="fill:#4dcfe0" d="M422.661,202.092L242.939,90.81c-4.702-3.135-10.971-3.135-15.673-0.522	c-5.224,2.612-7.837,7.837-7.837,13.584v222.563c0,5.747,3.135,10.971,7.837,13.584c2.612,1.567,5.225,2.09,7.837,2.09	s5.747-1.045,8.359-2.09l179.722-111.282c4.702-2.612,7.314-7.837,7.314-13.584C430.498,209.406,427.363,205.227,422.661,202.092z"/><path style="fill:#3a2c51" d="M203.233,202.092L23.51,90.81c-4.702-3.135-10.971-3.135-15.673-0.522C2.612,92.9,0,98.125,0,103.872	v222.563c0,5.747,3.135,10.971,7.837,13.584c2.612,1.567,5.224,2.09,7.837,2.09s5.747-1.045,8.359-2.09l179.722-111.282	c4.702-2.612,7.314-7.837,7.314-13.584C211.069,209.406,207.935,205.227,203.233,202.092z"/></svg>