<svg height="504pt" viewBox="0 0 504.10605 504" width="504pt" xmlns="http://www.w3.org/2000/svg"><path d="m482.390625 134.929688 16.964844-17.457032.007812-.007812c3.050781-3.140625 4.753907-7.351563 4.742188-11.726563l-.144531-80.210937c.082031-6.738282-2.566407-13.222656-7.335938-17.988282-4.777344-4.703124-11.203125-7.363281-17.914062-7.414062l-82.367188-.0703125c-.183594.1679685-.695312.0195313-1.050781.0625005-4.164063.65625-7.992188 2.679687-10.878907 5.753906l-178.839843 178.847656c-59.933594-16.519531-124.039063 2.625-165.101563 49.300781-41.0625 46.679688-51.875 112.703125-27.855468 170.039063 24.023437 57.339844 78.671874 95.9375 140.742187 99.40625 3.023437.167968 6.039063.25 9.054687.25 50.695313.027344 98.492188-23.621094 129.230469-63.933594s40.890625-92.667969 27.445313-141.546875l14.605468-14.613281c2.84375-2.835938 4.277344-6.796875 3.902344-10.796875l-3.726562-40.78125 37.03125 3.382812c4 .371094 7.960937-1.058593 10.800781-3.898437 2.84375-2.839844 4.273437-6.796875 3.910156-10.796875l-3.378906-37.042969 37.042969 3.390625c4 .363281 7.949218-1.066406 10.789062-3.902344 2.839844-2.839843 4.273438-6.789062 3.914063-10.785156l-3.339844-37.148437 40.957031 3.683593c4.015625.351563 7.976563-1.113281 10.792969-3.996093zm-54.132813-16.753907c-3.996093-.359375-7.941406 1.074219-10.777343 3.910157-2.835938 2.835937-4.269531 6.785156-3.910157 10.777343l3.339844 37.144531-37.054687-3.390624c-4-.363282-7.953125 1.070312-10.792969 3.910156-2.839844 2.835937-4.269531 6.792968-3.90625 10.792968l3.386719 37.039063-37.039063-3.390625c-4-.363281-7.957031 1.066406-10.796875 3.910156-2.839843 2.839844-4.269531 6.796875-3.902343 10.796875l3.941406 43.15625-17.035156 17.039063c-2.203126 2.195312-3.003907 5.429687-2.085938 8.402344 18.550781 60.0625-3.535156 125.25-54.777344 161.664062-51.238281 36.417969-120.0625 35.84375-170.6875-1.425781s-71.617187-102.816407-52.0625-162.558594c19.550782-59.746094 75.234375-100.199219 138.097656-100.328125 14.691407.015625 29.296876 2.226562 43.332032 6.558594 2.972656.914062 6.203125.113281 8.402344-2.085938l182.34375-182.347656c.332031-.328125.6875-.628906 1.058593-.910156l81.410157.074218h.035156c2.257812 0 4.417968.90625 5.996094 2.515626 1.578124 1.613281 2.441406 3.789062 2.398437 6.046874l.148437 80.277344-.007812.023438-15.824219 16.285156zm0 0"/><path d="m83.929688 349.917969c-19.316407 19.316406-19.316407 50.636719.003906 69.953125 19.316406 19.316406 50.632812 19.316406 69.949218 0 19.316407-19.316406 19.320313-50.636719.003907-69.953125-19.332031-19.289063-50.625-19.289063-69.957031 0zm58.082031 58.082031c-12.757813 12.75-33.433594 12.742188-46.1875-.011719-12.75-12.753906-12.75-33.433593 0-46.1875 12.753906-12.753906 33.429687-12.761719 46.1875-.011719 12.746093 12.765626 12.75 33.441407.007812 46.210938zm0 0"/><path d="m367.089844 81.28125-130.6875 130.6875c-2.179688 2.105469-3.054688 5.226562-2.289063 8.160156.769531 2.9375 3.0625 5.226563 5.996094 5.996094s6.054687-.105469 8.164063-2.289062l130.683593-130.683594c2.175781-2.109375 3.042969-5.226563 2.277344-8.15625-.769531-2.929688-3.058594-5.21875-5.988281-5.988282-2.929688-.769531-6.046875.097657-8.15625 2.273438zm0 0"/><path d="m389.054688 61.164062c-1.566407 1.480469-2.457032 3.539063-2.457032 5.695313 0 2.152344.890625 4.214844 2.457032 5.691406 3.332031 3.144531 8.539062 3.144531 11.871093 0 1.570313-1.476562 2.460938-3.539062 2.460938-5.691406 0-2.15625-.890625-4.214844-2.460938-5.695313-3.332031-3.144531-8.539062-3.144531-11.871093 0zm0 0"/></svg>