<?xml version="1.0" encoding="UTF-8"?>
<svg xmlns="http://www.w3.org/2000/svg" xmlns:xlink="http://www.w3.org/1999/xlink" width="16pt" height="16pt" viewBox="0 0 16 16" version="1.1">
<g id="surface1">
<path style=" stroke:none;fill-rule:nonzero;fill:rgb(96.470588%,96.470588%,96.470588%);fill-opacity:1;" d="M 13.449219 5.609375 L 12.871094 4.671875 L 11.804688 5.480469 L 11.726562 5.574219 C 11.394531 5.992188 10.800781 6.917969 10.605469 8.453125 L 10.582031 8.617188 L 10.617188 8.78125 L 10.6875 9.125 C 10.6875 10.777344 9.339844 12.125 7.6875 12.125 C 6.890625 12.125 6.140625 11.8125 5.578125 11.257812 C 5.015625 10.691406 4.707031 9.941406 4.707031 9.144531 C 4.707031 7.714844 5.714844 6.515625 7.058594 6.21875 L 7.058594 9.144531 C 7.058594 9.144531 9.585938 7.054688 10.042969 6.683594 L 10.054688 6.683594 L 13.113281 4.101562 L 8.195312 0 L 7.058594 0 L 7.058594 2.402344 C 3.628906 2.722656 0.9375 5.613281 0.9375 9.125 C 0.9375 10.933594 1.644531 12.632812 2.925781 13.90625 C 4.199219 15.1875 5.898438 15.894531 7.707031 15.894531 C 11.429688 15.894531 14.457031 12.867188 14.457031 9.144531 C 14.457031 7.898438 14.109375 6.675781 13.449219 5.609375 Z M 13.449219 5.609375 "/>
<path style=" stroke:none;fill-rule:nonzero;fill:rgb(25.882353%,25.882353%,25.882353%);fill-opacity:1;" d="M 12.601562 6.132812 L 12.507812 6.203125 C 12.238281 6.539062 11.761719 7.300781 11.597656 8.578125 C 11.652344 8.855469 11.6875 9.074219 11.6875 9.125 C 11.6875 11.332031 9.894531 13.125 7.6875 13.125 C 6.589844 13.125 5.59375 12.679688 4.871094 11.960938 C 4.152344 11.238281 3.707031 10.242188 3.707031 9.144531 C 3.707031 6.941406 5.503906 5.144531 7.707031 5.144531 L 8.058594 5.171875 L 8.058594 7.019531 C 8.058594 7.019531 9.683594 5.679688 9.691406 5.683594 L 11.558594 4.105469 L 8.058594 1.1875 L 8.058594 3.40625 L 7.6875 3.375 C 4.511719 3.375 1.9375 5.949219 1.9375 9.125 C 1.9375 10.71875 2.585938 12.160156 3.632812 13.203125 C 4.675781 14.246094 6.113281 14.894531 7.710938 14.894531 C 10.886719 14.894531 13.460938 12.320312 13.460938 9.144531 C 13.457031 8.039062 13.140625 7.011719 12.601562 6.132812 Z M 12.601562 6.132812 "/>
</g>
</svg>
