<svg xmlns="http://www.w3.org/2000/svg" height="8" width="9" style=""><rect id="backgroundrect" width="100%" height="100%" x="0" y="0" fill="none" stroke="none"/><g class="currentLayer" style=""><title>Layer 1</title><path d="m0 7h1v1h-1z" fill="#f00" id="svg_1"/><path d="m0 0h1v7h-1zm2 0h1v8h-1zm2 0h1v8h-1zm2 0h1v8h-1zm2 3.25h1v1.5h-1z" fill="#fc0" id="svg_2"/><path fill="#1aeb1a" fill-opacity="1" stroke="#222222" stroke-opacity="1" stroke-width="0" stroke-dasharray="none" stroke-linejoin="round" stroke-linecap="butt" stroke-dashoffset="" fill-rule="nonzero" opacity="1" marker-start="" marker-mid="" marker-end="" d="M5.790123943437855,6.771604886013843 C5.790123943437855,6.195245829397398 6.25697477929718,5.728394993538074 6.833333835913626,5.728394993538074 C7.409692892530074,5.728394993538074 7.876543728389393,6.195245829397398 7.876543728389393,6.771604886013843 C7.876543728389393,7.347963942630289 7.409692892530074,7.8148147784896125 6.833333835913626,7.8148147784896125 C6.25697477929718,7.8148147784896125 5.790123943437855,7.347963942630289 5.790123943437855,6.771604886013843 z" id="svg_6" class=""/></g></svg>