<svg xmlns="http://www.w3.org/2000/svg" height="8" width="9"><rect id="backgroundrect" width="100%" height="100%" x="0" y="0" fill="none" stroke="none"/><g class="currentLayer" style=""><title>Layer 1</title><path d="m0 7h1v1h-1z" fill="#f00" id="svg_1"/><path d="m0 0h1v7h-1zm2 0h1v8h-1zm2 0h1v8h-1zm2 0h1v8h-1zm2 3.25h1v1.5h-1z" fill="#fc0" id="svg_2"/><path fill="#1aeb1a" fill-opacity="1" stroke="#222222" stroke-opacity="1" stroke-width="0" stroke-dasharray="none" stroke-linejoin="round" stroke-linecap="butt" stroke-dashoffset="" fill-rule="nonzero" opacity="1" marker-start="" marker-mid="" marker-end="" d="M5.296296746520895,6.179012312544717 C5.296296746520895,5.438953659858319 5.895744255196883,4.839506151182332 6.635802907883282,4.839506151182332 C7.375861560569682,4.839506151182332 7.9753090692456645,5.438953659858319 7.9753090692456645,6.179012312544717 C7.9753090692456645,6.919070965231116 7.375861560569682,7.518518473907101 6.635802907883282,7.518518473907101 C5.895744255196883,7.518518473907101 5.296296746520895,6.919070965231116 5.296296746520895,6.179012312544717 z" id="svg_6" class=""/></g></svg>