<svg xmlns="http://www.w3.org/2000/svg" xmlns:xlink="http://www.w3.org/1999/xlink" width="80" height="80"><rect id="backgroundrect" width="100%" height="100%" x="0" y="0" fill="none" stroke="none"/><style>.st0{clip-path:url(#SVGID_2_);fill:#f0bf1a}.st1{clip-path:url(#SVGID_4_);fill:#3ebeb0}.st2{clip-path:url(#SVGID_6_);fill:#07a5de}.st3{clip-path:url(#SVGID_8_);fill:#231f20}.st4{fill:#d7a229}.st5{fill:#019b8f}.st6{fill:none}</style><defs><circle id="SVGID_1_" cx="40" cy="40" r="32"/></defs><clipPath id="SVGID_2_"><use id="svg_1" overflow="visible" xlink:href="#SVGID_1_"/></clipPath><defs><circle id="SVGID_3_" cx="40" cy="40" r="32"/></defs><clipPath id="SVGID_4_"><use id="svg_2" overflow="visible" xlink:href="#SVGID_3_"/></clipPath><g class="currentLayer"><title>Layer 1</title><path id="svg_3" d="M53.7 26H10c-1.1 0-2-.9-2-2V10c0-1.1.9-2 2-2h57c1.1 0 2 .9 2 2v.7C68.9 19.1 62.1 26 53.7 26z" class="st0"/><path id="svg_4" d="M69.1 72H8.2V54h45.7c8.4 0 15.2 6.8 15.2 15.2V72z" class="st1"/><g id="svg_5"><defs><circle id="SVGID_5_" cx="40" cy="40" r="32"/></defs><clipPath id="SVGID_6_"><use id="svg_6" overflow="visible" xlink:href="#SVGID_5_"/></clipPath><path id="svg_7" d="M50.1 49H4.8V31h45.3c5 0 9 4 9 9s-4.1 9-9 9z" class="st2"/></g><g id="svg_8"><defs><circle id="SVGID_7_" cx="40" cy="40" r="32"/></defs><clipPath id="SVGID_8_"><use id="svg_9" overflow="visible" xlink:href="#SVGID_7_"/></clipPath><path id="svg_10" d="M36 31H6.4v18H36c.7-2.7 1.1-5.7 1.1-9s-.4-6.3-1.1-9z" class="st3"/></g><path id="svg_11" d="M23.9 12.3c-5.4 3.2-9.9 8-12.7 13.7h23.6c-2.4-5.5-6.2-10.1-10.9-13.7z" class="st4"/><path id="svg_12" d="M24.9 68.2c4.6-3.7 8.3-8.6 10.6-14.2H11.2c3 6 7.8 11 13.7 14.2z" class="st5"/><path id="svg_13" d="M0 0h80v80H0z" class="st6"/><path id="svg_14" fill="#1aeb1a" fill-opacity="1" fill-rule="nonzero" stroke="#000" stroke-dasharray="none" stroke-linecap="butt" stroke-linejoin="miter" stroke-opacity="1" stroke-width="1" d="M54.60563379526138,66.79577469825745 C54.60563379526138,61.54715591372706 58.857015010731,57.295774698257446 64.10563379526138,57.295774698257446 C69.35425257979176,57.295774698257446 73.60563379526138,61.54715591372706 73.60563379526138,66.79577469825745 C73.60563379526138,72.04439348278783 69.35425257979176,76.29577469825745 64.10563379526138,76.29577469825745 C58.857015010731,76.29577469825745 54.60563379526138,72.04439348278783 54.60563379526138,66.79577469825745 z" opacity="1"/></g></svg>