<svg xmlns="http://www.w3.org/2000/svg" xmlns:xlink="http://www.w3.org/1999/xlink" width="150" height="150" version="1.1" style=""><rect id="backgroundrect" width="100%" height="100%" x="0" y="0" fill="none" stroke="none"/>

<g class="currentLayer" style=""><title>Layer 1</title><g id="surface1">
<path style=" stroke:none;fill-rule:nonzero;fill:rgb(32.156863%,50.196078%,89.019608%);fill-opacity:1;" d="M 107.050781 0 C 101.222656 0.0429688 95.425781 0.890625 89.832031 2.519531 L 89.4375 2.644531 C 85.90625 2.019531 82.335938 1.675781 78.75 1.613281 C 71.386719 1.488281 65.0625 3.273438 59.960938 6.25 C 54.9375 4.507812 44.511719 1.5 33.523438 2.101562 C 25.875 2.519531 17.523438 4.84375 11.335938 11.375 C 5.167969 17.90625 1.90625 28.011719 2.59375 41.761719 C 2.78125 45.554688 3.863281 51.742188 5.65625 59.757812 C 7.449219 67.769531 9.96875 77.148438 13.113281 85.707031 C 16.257812 94.269531 19.699219 101.957031 25.082031 107.179688 C 27.769531 109.800781 31.46875 112 35.832031 111.820312 C 38.894531 111.695312 41.664062 110.351562 44.050781 108.367188 C 45.210938 109.898438 46.457031 110.570312 47.585938 111.1875 C 49.011719 111.96875 50.398438 112.5 51.835938 112.851562 C 54.417969 113.492188 58.835938 114.355469 64.011719 113.476562 C 65.773438 113.179688 67.632812 112.605469 69.480469 111.789062 C 69.550781 113.851562 69.632812 115.867188 69.710938 117.914062 C 69.96875 124.386719 70.132812 130.367188 72.074219 135.613281 C 72.386719 136.46875 73.242188 140.882812 76.617188 144.773438 C 79.992188 148.675781 86.605469 151.105469 94.136719 149.492188 C 99.449219 148.355469 106.207031 146.304688 110.695312 139.917969 C 115.132812 133.605469 117.132812 124.550781 117.523438 109.863281 C 117.613281 109.160156 117.730469 108.457031 117.867188 107.761719 L 118.925781 107.855469 L 119.050781 107.855469 C 124.71875 108.113281 130.867188 107.304688 136.007812 104.917969 C 140.554688 102.8125 144 100.679688 146.507812 96.898438 C 147.132812 95.960938 147.820312 94.832031 148.007812 92.882812 C 148.195312 90.929688 147.074219 87.882812 145.21875 86.476562 C 141.5 83.648438 139.164062 84.726562 136.65625 85.242188 C 134.1875 85.789062 131.671875 86.09375 129.144531 86.15625 C 136.367188 73.988281 141.550781 61.0625 144.507812 49.625 C 146.257812 42.875 147.238281 36.648438 147.320312 31.207031 C 147.398438 25.761719 146.957031 20.945312 143.695312 16.773438 C 133.5 3.75 119.167969 0.148438 108.082031 0.0234375 C 107.738281 0.0195312 107.394531 0.0117188 107.050781 0.0195312 Z M 106.757812 4 C 117.242188 3.898438 130.644531 6.84375 140.261719 19.136719 C 142.425781 21.898438 143.070312 25.9375 142.992188 30.914062 C 142.914062 35.882812 141.992188 41.832031 140.3125 48.351562 C 137.050781 60.976562 130.886719 75.695312 122.207031 88.898438 C 122.511719 89.117188 122.84375 89.296875 123.195312 89.4375 C 125.007812 90.1875 129.136719 90.832031 137.382812 89.136719 C 139.457031 88.699219 140.976562 88.40625 142.550781 89.605469 C 143.324219 90.265625 143.75 91.246094 143.695312 92.261719 C 143.609375 93.019531 143.328125 93.746094 142.882812 94.363281 C 141.289062 96.757812 138.144531 99.023438 134.113281 100.894531 C 130.542969 102.554688 125.425781 103.425781 120.886719 103.476562 C 118.613281 103.5 116.511719 103.324219 114.730469 102.769531 L 114.617188 102.726562 C 113.929688 109.351562 112.351562 122.429688 111.320312 128.398438 C 110.492188 133.210938 109.050781 137.039062 106.292969 139.898438 C 103.542969 142.761719 99.648438 144.488281 94.414062 145.613281 C 87.925781 147.007812 83.195312 145.507812 80.144531 142.9375 C 77.101562 140.375 75.707031 136.976562 74.867188 134.894531 C 74.292969 133.457031 73.992188 131.59375 73.707031 129.105469 C 73.417969 126.617188 73.207031 123.574219 73.0625 120.144531 C 72.871094 114.890625 72.808594 109.632812 72.875 104.375 C 70.164062 106.855469 66.796875 108.507812 63.175781 109.125 C 58.867188 109.855469 55.023438 109.136719 52.730469 108.5625 C 51.601562 108.277344 50.507812 107.855469 49.480469 107.304688 C 48.417969 106.738281 47.40625 106.09375 46.730469 104.824219 C 46.335938 104.097656 46.207031 103.253906 46.375 102.445312 C 46.585938 101.621094 47.066406 100.894531 47.738281 100.375 C 48.976562 99.367188 50.613281 98.804688 53.082031 98.292969 C 57.574219 97.367188 59.144531 96.738281 60.101562 95.980469 C 60.914062 95.332031 61.832031 94.019531 63.457031 92.09375 C 63.449219 92.007812 63.441406 91.921875 63.4375 91.835938 C 60.527344 91.753906 57.679688 90.988281 55.125 89.601562 C 54.1875 90.585938 49.398438 95.648438 43.5625 102.675781 C 41.105469 105.613281 38.394531 107.300781 35.53125 107.417969 C 32.667969 107.542969 30.082031 106.101562 27.882812 103.96875 C 23.488281 99.699219 19.980469 92.355469 16.925781 84.054688 C 13.875 75.757812 11.394531 66.511719 9.632812 58.636719 C 7.863281 50.761719 6.820312 44.414062 6.667969 41.351562 C 6.011719 28.335938 9.054688 19.570312 14.273438 14.039062 C 19.5 8.507812 26.664062 6.414062 33.644531 6.011719 C 46.175781 5.292969 58.074219 9.664062 60.480469 10.601562 C 65.117188 7.449219 71.09375 5.488281 78.554688 5.613281 C 82.097656 5.664062 85.625 6.121094 89.0625 6.976562 L 89.1875 6.917969 C 90.699219 6.386719 92.242188 5.941406 93.804688 5.582031 C 98.050781 4.589844 102.390625 4.066406 106.75 4.011719 Z M 107.707031 8.1875 L 106.792969 8.1875 C 103.214844 8.238281 99.644531 8.640625 96.144531 9.386719 C 103.929688 12.835938 109.8125 18.148438 113.957031 23.449219 C 116.835938 27.121094 119.214844 31.15625 121.03125 35.449219 C 121.71875 37.101562 122.179688 38.492188 122.445312 39.574219 C 122.574219 40.117188 122.664062 40.574219 122.695312 41.050781 C 122.71875 41.351562 122.691406 41.65625 122.617188 41.949219 C 122.617188 41.96875 122.585938 42.011719 122.582031 42.03125 C 122.769531 47.507812 121.414062 51.21875 121.25 56.445312 C 121.125 60.230469 122.09375 64.679688 122.332031 69.539062 C 122.554688 74.101562 122.007812 79.113281 119.042969 84.03125 C 119.292969 84.332031 119.519531 84.632812 119.757812 84.929688 C 127.59375 72.585938 133.242188 58.929688 136.257812 47.289062 C 137.867188 41.019531 138.726562 35.335938 138.800781 30.835938 C 138.863281 26.335938 138.023438 23.074219 136.957031 21.710938 C 128.570312 10.988281 117.21875 8.257812 107.707031 8.179688 Z M 77.769531 9.789062 C 70.382812 9.804688 65.082031 12.039062 61.0625 15.382812 C 56.917969 18.835938 54.136719 23.570312 52.3125 28.414062 C 50.144531 34.164062 49.398438 39.726562 49.105469 43.5 L 49.1875 43.449219 C 51.417969 42.199219 54.351562 40.949219 57.488281 40.226562 C 60.625 39.507812 64.007812 39.28125 67.070312 40.46875 C 70.132812 41.65625 72.664062 44.449219 73.582031 48.6875 C 77.980469 69.042969 72.210938 76.613281 70.085938 82.324219 C 69.28125 84.394531 68.589844 86.507812 68.019531 88.65625 C 68.289062 88.59375 68.554688 88.519531 68.824219 88.492188 C 70.324219 88.367188 71.5 88.867188 72.199219 89.167969 C 74.335938 90.054688 75.804688 91.917969 76.601562 94.042969 C 76.804688 94.601562 76.957031 95.199219 77.042969 95.820312 C 77.136719 96.074219 77.179688 96.34375 77.167969 96.613281 C 76.933594 104.398438 76.957031 112.191406 77.25 119.976562 C 77.394531 123.335938 77.605469 126.300781 77.875 128.636719 C 78.144531 130.96875 78.523438 132.742188 78.769531 133.34375 C 79.570312 135.34375 80.738281 137.960938 82.851562 139.742188 C 84.960938 141.519531 87.992188 142.707031 93.53125 141.519531 C 98.332031 140.488281 101.292969 139.054688 103.273438 137 C 105.25 134.945312 106.429688 132.082031 107.1875 127.699219 C 108.320312 121.136719 110.59375 102.105469 110.867188 98.523438 C 110.742188 95.824219 111.144531 93.75 112.007812 92.167969 C 112.894531 90.542969 114.269531 89.550781 115.457031 89.011719 C 116.050781 88.742188 116.605469 88.5625 117.0625 88.429688 C 116.578125 87.738281 116.074219 87.058594 115.542969 86.398438 C 113.832031 84.324219 112.429688 82.011719 111.382812 79.53125 C 110.878906 78.507812 110.34375 77.5 109.773438 76.511719 C 108.945312 75.011719 107.894531 73.136719 106.792969 71.03125 C 104.59375 66.8125 102.199219 61.699219 100.957031 56.71875 C 99.71875 51.742188 99.539062 46.59375 102.710938 42.960938 C 105.523438 39.738281 110.460938 38.398438 117.875 39.148438 C 117.65625 38.492188 117.523438 37.949219 117.15625 37.074219 C 115.480469 33.128906 113.292969 29.421875 110.648438 26.050781 C 104.367188 18.019531 94.199219 10.054688 78.488281 9.800781 L 77.769531 9.800781 Z M 36.257812 10.113281 C 35.460938 10.113281 34.667969 10.136719 33.882812 10.179688 C 27.570312 10.542969 21.601562 12.375 17.332031 16.898438 C 13.054688 21.425781 10.242188 28.84375 10.855469 41.125 C 10.976562 43.449219 11.988281 49.960938 13.726562 57.699219 C 15.457031 65.4375 17.914062 74.542969 20.863281 82.585938 C 23.820312 90.632812 27.398438 97.632812 30.800781 100.945312 C 32.511719 102.601562 34 103.269531 35.351562 103.210938 C 36.707031 103.148438 38.335938 102.367188 40.332031 99.976562 C 43.964844 95.589844 47.738281 91.320312 51.644531 87.175781 C 46.011719 82.285156 43.265625 74.863281 44.351562 67.488281 C 44.992188 62.867188 45.082031 58.550781 45.007812 55.136719 C 44.929688 51.8125 44.695312 49.601562 44.695312 48.21875 C 44.691406 48.179688 44.691406 48.140625 44.695312 48.101562 L 44.695312 48.070312 L 44.6875 48.03125 L 44.6875 48.023438 C 44.683594 40.828125 45.9375 33.691406 48.386719 26.925781 C 50.136719 22.273438 52.742188 17.550781 56.648438 13.726562 C 52.8125 12.460938 46 10.539062 38.625 10.175781 C 37.832031 10.132812 37.042969 10.113281 36.25 10.113281 Z M 113.742188 43.125 C 109.5 43.179688 107.117188 44.273438 105.867188 45.707031 C 104.101562 47.738281 103.929688 51.300781 105.03125 55.6875 C 106.125 60.082031 108.386719 64.992188 110.511719 69.074219 C 111.574219 71.117188 112.605469 72.957031 113.4375 74.449219 C 114.273438 75.949219 114.886719 77.011719 115.261719 77.917969 C 115.605469 78.757812 115.988281 79.492188 116.375 80.179688 C 118.019531 76.710938 118.3125 73.304688 118.144531 69.757812 C 117.925781 65.363281 116.90625 60.867188 117.054688 56.320312 C 117.226562 51 118.273438 47.539062 118.367188 43.425781 C 116.835938 43.226562 115.289062 43.125 113.742188 43.125 Z M 62.28125 43.84375 C 60.984375 43.855469 59.695312 44.011719 58.429688 44.304688 C 55.914062 44.917969 53.492188 45.859375 51.226562 47.113281 C 50.457031 47.523438 49.726562 48 49.042969 48.539062 L 48.90625 48.664062 C 48.945312 49.574219 49.125 51.789062 49.199219 55.042969 C 49.273438 58.605469 49.1875 63.148438 48.5 68.070312 C 47.007812 78.757812 54.761719 87.605469 63.875 87.617188 C 64.40625 85.425781 65.28125 83.199219 66.15625 80.855469 C 68.695312 74.019531 73.6875 69.03125 69.480469 49.570312 C 68.792969 46.382812 67.429688 45.09375 65.554688 44.367188 C 64.503906 43.996094 63.394531 43.820312 62.28125 43.84375 Z M 111.761719 45.117188 L 112.074219 45.117188 C 112.453125 45.125 112.832031 45.171875 113.199219 45.257812 C 113.539062 45.332031 113.824219 45.445312 114.0625 45.601562 C 114.308594 45.753906 114.480469 46.003906 114.53125 46.289062 L 114.523438 46.335938 L 114.53125 46.335938 L 114.523438 46.335938 C 114.539062 46.632812 114.460938 46.929688 114.304688 47.179688 C 114.121094 47.523438 113.890625 47.839844 113.617188 48.117188 C 112.984375 48.816406 112.136719 49.285156 111.207031 49.445312 C 110.300781 49.554688 109.390625 49.324219 108.644531 48.800781 C 108.339844 48.59375 108.066406 48.347656 107.832031 48.0625 C 107.628906 47.839844 107.492188 47.566406 107.4375 47.269531 C 107.410156 46.976562 107.507812 46.6875 107.699219 46.46875 C 107.90625 46.234375 108.152344 46.042969 108.429688 45.90625 C 109.03125 45.570312 109.84375 45.320312 110.761719 45.179688 C 111.105469 45.132812 111.445312 45.105469 111.761719 45.101562 Z M 62.886719 46.167969 C 63.21875 46.167969 63.570312 46.199219 63.925781 46.25 C 64.882812 46.382812 65.730469 46.636719 66.382812 47.011719 C 66.699219 47.179688 66.980469 47.402344 67.210938 47.675781 C 67.46875 47.964844 67.589844 48.351562 67.550781 48.738281 C 67.488281 49.097656 67.328125 49.429688 67.082031 49.699219 C 66.824219 50.015625 66.523438 50.289062 66.1875 50.511719 C 65.375 51.089844 64.375 51.339844 63.386719 51.21875 C 62.378906 51.050781 61.453125 50.550781 60.761719 49.792969 C 60.46875 49.488281 60.222656 49.144531 60.023438 48.769531 C 59.820312 48.4375 59.730469 48.050781 59.769531 47.664062 C 59.863281 46.988281 60.417969 46.636719 60.960938 46.445312 C 61.582031 46.246094 62.230469 46.160156 62.882812 46.195312 Z M 119.511719 92.0625 L 119.492188 92.070312 C 118.574219 92.398438 117.820312 92.539062 117.179688 92.820312 C 116.535156 93.066406 116.003906 93.542969 115.6875 94.15625 C 115.292969 94.875 114.957031 96.148438 115.054688 98.320312 C 115.339844 98.511719 115.652344 98.660156 115.980469 98.757812 C 117.050781 99.082031 118.84375 99.292969 120.84375 99.261719 C 124.832031 99.21875 129.738281 98.289062 132.34375 97.074219 C 134.480469 96.082031 136.464844 94.789062 138.238281 93.230469 L 138.230469 93.230469 C 129.523438 95.03125 124.605469 94.550781 121.585938 93.304688 C 120.835938 92.996094 120.136719 92.574219 119.511719 92.054688 Z M 69.320312 92.648438 L 69.1875 92.648438 C 68.855469 92.679688 68.375 92.792969 67.445312 93.824219 C 65.269531 96.261719 64.507812 97.792969 62.710938 99.226562 C 60.917969 100.648438 58.585938 101.414062 53.929688 102.367188 C 52.9375 102.546875 51.96875 102.847656 51.050781 103.269531 C 51.230469 103.417969 51.210938 103.457031 51.488281 103.601562 C 52.167969 103.976562 53.042969 104.304688 53.75 104.488281 C 55.75 104.988281 59.039062 105.570312 62.46875 104.988281 C 65.898438 104.398438 69.46875 102.757812 72.511719 98.488281 C 73.039062 97.75 73.09375 96.664062 72.664062 95.492188 C 72.226562 94.324219 71.269531 93.320312 70.59375 93.039062 C 70.191406 92.84375 69.761719 92.71875 69.320312 92.664062 Z M 69.320312 92.648438 " id="svg_1"/>
</g><path fill="#0bd50b" fill-opacity="1" stroke="#222222" stroke-opacity="1" stroke-width="2" stroke-dasharray="none" stroke-linejoin="round" stroke-linecap="butt" stroke-dashoffset="" fill-rule="nonzero" opacity="1" marker-start="" marker-mid="" marker-end="" d="M108.58201086521149,127.43121719360352 C108.58201086521149,118.315195094156 116.18974567184132,110.93121719360352 125.58201086521149,110.93121719360352 C134.97427605858167,110.93121719360352 142.5820108652115,118.315195094156 142.5820108652115,127.43121719360352 C142.5820108652115,136.54723929305104 134.97427605858167,143.93121719360352 125.58201086521149,143.93121719360352 C116.18974567184132,143.93121719360352 108.58201086521149,136.54723929305104 108.58201086521149,127.43121719360352 z" id="svg_5" class=""/></g></svg>