<?xml version="1.0" encoding="iso-8859-1"?>
<!-- Generator: Adobe Illustrator 19.0.0, SVG Export Plug-In . SVG Version: 6.00 Build 0)  -->
<svg version="1.1" id="Capa_1" xmlns="http://www.w3.org/2000/svg" xmlns:xlink="http://www.w3.org/1999/xlink" x="0px" y="0px"
	 viewBox="0 0 512 512" style="enable-background:new 0 0 512 512;" xml:space="preserve">
<g>
	<path style="fill:#E7ECED;" d="M481.103,512H30.897C13.833,512,0,498.167,0,481.103V83.862c0-17.064,13.833-30.897,30.897-30.897
		h450.207c17.064,0,30.897,13.833,30.897,30.897v397.241C512,498.167,498.167,512,481.103,512z"/>
	<path style="fill:#28384C;" d="M512,105.931H0V30.897C0,13.833,13.833,0,30.897,0h450.207C498.167,0,512,13.833,512,30.897V105.931
		z"/>
	<rect x="35.31" y="35.31" style="fill:#DD352E;" width="35.31" height="35.31"/>
	<rect x="105.931" y="35.31" style="fill:#EBBA16;" width="35.31" height="35.31"/>
	<rect x="176.552" y="35.31" style="fill:#23A24D;" width="35.31" height="35.31"/>
</g>
<path style="fill:#366DB6;" d="M423.724,335.448v-52.966h-20.242c-9.075,0-17.337-5.782-19.897-14.486
	c-2.675-9.084-6.285-14.415-10.734-22.581c-4.352-7.989-2.657-17.938,3.778-24.373l14.327-14.327l-32.715-32.715l-14.327,14.327
	c-6.435,6.435-16.384,8.13-24.373,3.778c-8.166-4.449-13.497-8.06-22.581-10.734c-8.695-2.551-14.477-10.814-14.477-19.889v-20.242
	h-52.966v20.242c0,9.075-5.782,17.337-14.486,19.897c-9.084,2.675-14.415,6.285-22.581,10.734
	c-7.989,4.352-17.938,2.657-24.373-3.778l-14.327-14.327l-32.715,32.715l14.327,14.327c6.435,6.435,8.13,16.384,3.778,24.373
	c-4.449,8.166-8.06,13.497-10.734,22.581c-2.551,8.695-10.814,14.477-19.889,14.477H88.276v52.966h20.242
	c9.075,0,17.337,5.782,19.897,14.486c2.675,9.084,6.285,14.415,10.734,22.581c4.352,7.989,2.657,17.938-3.778,24.373l-14.327,14.327
	l32.715,32.715l14.327-14.327c6.435-6.435,16.384-8.13,24.373-3.778c8.166,4.449,13.497,8.06,22.581,10.734
	c8.695,2.551,14.477,10.814,14.477,19.889v20.242h52.966v-20.242c0-9.075,5.782-17.337,14.486-19.897
	c9.084-2.675,14.415-6.285,22.581-10.734c7.989-4.352,17.938-2.657,24.373,3.778l14.327,14.327l32.715-32.715l-14.327-14.327
	c-6.435-6.435-8.13-16.384-3.778-24.373c4.449-8.166,8.06-13.497,10.734-22.581c2.551-8.695,10.814-14.477,19.889-14.477H423.724z"
	/>
<circle style="fill:#FFFFFF;" cx="256" cy="308.966" r="97.103"/>
<g>
	<path style="fill:#DD352E;" d="M220.69,344.276c-2.26,0-4.52-0.865-6.241-2.586l-26.483-26.483c-3.452-3.452-3.452-9.031,0-12.482
		l26.483-26.483c3.443-3.452,9.039-3.452,12.482,0c3.452,3.452,3.452,9.031,0,12.482l-20.242,20.242l20.242,20.242
		c3.452,3.452,3.452,9.031,0,12.482C225.209,343.411,222.95,344.276,220.69,344.276z"/>
	<path style="fill:#DD352E;" d="M291.31,344.276c-2.26,0-4.52-0.865-6.241-2.586c-3.452-3.452-3.452-9.031,0-12.482l20.242-20.242
		l-20.242-20.242c-3.452-3.452-3.452-9.031,0-12.482c3.443-3.452,9.039-3.452,12.482,0l26.483,26.483
		c3.452,3.452,3.452,9.031,0,12.482l-26.483,26.483C295.83,343.411,293.57,344.276,291.31,344.276z"/>
	<path style="fill:#DD352E;" d="M247.172,344.276c-0.803,0-1.615-0.115-2.428-0.335c-4.687-1.342-7.406-6.232-6.065-10.911
		l17.655-61.793c1.342-4.687,6.223-7.371,10.911-6.073c4.687,1.342,7.406,6.232,6.065,10.911l-17.655,61.793
		C254.552,341.751,251.021,344.276,247.172,344.276z"/>
</g>
<g>
</g>
<g>
</g>
<g>
</g>
<g>
</g>
<g>
</g>
<g>
</g>
<g>
</g>
<g>
</g>
<g>
</g>
<g>
</g>
<g>
</g>
<g>
</g>
<g>
</g>
<g>
</g>
<g>
</g>
</svg>
