<svg xmlns="http://www.w3.org/2000/svg" xmlns:xlink="http://www.w3.org/1999/xlink" width="14pt" height="14pt" version="1.1" viewBox="0 0 14 14"><g id="surface1"><path style="stroke:none;fill-rule:nonzero;fill:#eee;fill-opacity:1" d="M 13.609375 1.621094 L 0.390625 1.621094 C 0.136719 1.621094 -0.0703125 1.828125 -0.0703125 2.082031 L -0.0703125 11.917969 C -0.0703125 12.171875 0.136719 12.378906 0.390625 12.378906 L 13.609375 12.378906 C 13.863281 12.378906 14.070312 12.171875 14.070312 11.917969 L 14.070312 2.082031 C 14.070312 1.828125 13.863281 1.621094 13.609375 1.621094 Z M 13.148438 11.457031 L 0.851562 11.457031 L 0.851562 5.300781 L 13.148438 5.300781 Z M 13.148438 4.378906 L 0.851562 4.378906 L 0.851562 2.542969 L 13.148438 2.542969 Z M 13.148438 4.378906"/><path style="stroke:none;fill-rule:nonzero;fill:#eee;fill-opacity:1" d="M 12.179688 2.78125 C 11.839844 2.78125 11.566406 3.058594 11.566406 3.394531 C 11.566406 3.734375 11.839844 4.011719 12.179688 4.011719 C 12.519531 4.011719 12.792969 3.734375 12.792969 3.394531 C 12.792969 3.058594 12.519531 2.78125 12.179688 2.78125 Z M 12.179688 2.78125"/><path style="stroke:none;fill-rule:nonzero;fill:#eee;fill-opacity:1" d="M 10.503906 2.78125 C 10.167969 2.78125 9.890625 3.058594 9.890625 3.394531 C 9.890625 3.734375 10.167969 4.011719 10.503906 4.011719 C 10.84375 4.011719 11.121094 3.734375 11.121094 3.394531 C 11.121094 3.058594 10.84375 2.78125 10.503906 2.78125 Z M 10.503906 2.78125"/><path style="stroke:none;fill-rule:nonzero;fill:#eee;fill-opacity:1" d="M 8.832031 2.78125 C 8.492188 2.78125 8.214844 3.058594 8.214844 3.394531 C 8.214844 3.734375 8.492188 4.011719 8.832031 4.011719 C 9.167969 4.011719 9.445312 3.734375 9.445312 3.394531 C 9.445312 3.058594 9.167969 2.78125 8.832031 2.78125 Z M 8.832031 2.78125"/><path style="stroke:none;fill-rule:nonzero;fill:#eee;fill-opacity:1" d="M 6.433594 8.027344 L 4.921875 6.742188 C 4.730469 6.578125 4.4375 6.601562 4.273438 6.796875 C 4.109375 6.988281 4.132812 7.28125 4.324219 7.445312 L 5.421875 8.378906 L 4.324219 9.3125 C 4.132812 9.476562 4.109375 9.765625 4.273438 9.960938 C 4.4375 10.15625 4.730469 10.179688 4.921875 10.015625 L 6.433594 8.730469 C 6.648438 8.546875 6.648438 8.210938 6.433594 8.027344 Z M 6.433594 8.027344"/><path style="stroke:none;fill-rule:nonzero;fill:#eee;fill-opacity:1" d="M 9.375 9.203125 L 7.554688 9.203125 C 7.300781 9.203125 7.09375 9.40625 7.09375 9.664062 C 7.09375 9.917969 7.300781 10.125 7.554688 10.125 L 9.375 10.125 C 9.628906 10.125 9.835938 9.917969 9.835938 9.664062 C 9.835938 9.40625 9.628906 9.203125 9.375 9.203125 Z M 9.375 9.203125"/></g></svg>